<?xml version="1.0" encoding="UTF-8"?>
<svg viewBox="0 0 128 128" xmlns="http://www.w3.org/2000/svg">
 <g transform="matrix(.41918 0 0 .41918 -6.6597 24.632)" fill-rule="evenodd">
  <path d="m295.75 44.625c-32.147-0.22809-64.297 0.15695-96.431 1.0804-6.9915 2.0205-11.763 7.9354-17.612 11.902-5.9808 4.8119-11.777 9.9968-18.643 13.541-5.2706 0.62954-10.791 0.05649-15.697 2.5373-5.9382 1.6883-10.283 7.9781-16.895 6.5124-23.14-1.7721-47.682 3.5919-65.715 18.836-12.749 10.043-24.707 21.065-37.26 31.323-3.5747 1.0699-1.706 5.7625 1.4294 2.7227 4.7082-2.4414 9.1453-9.1706 13.862-9.0691 5.2135-0.14109 8.7653-5.4999 13.394-7.5671 19.577-13.364 39.74-27.526 63.354-32.453 5.1684-0.71503 10.578-0.68431 15.615 0.72 3.77 3.5656 4.1134 9.5649 8.6209 12.7 1.0114 3.476 3.3083 6.9852 7.2613 5.545 3.2802 2.1606-4.8491 9.616 2.0497 8.2609 5.3216-1.2573 10.165-9.5582 15.82-5.5978 2.4831 3.4144 6.0186 9.407 10.747 5.1046 5.6449-3.4315-7.5851-8.4395 0.97719-9.7245 7.0139-3.5547 10.508-11.085 14.596-17.388 2.9326-5.3058 5.4985-11.09 5.5929-17.254-4.4084-2.3479-7.0104 4.5745-10.958 5.756-4.8175 3.2899-9.9442 6.2327-15.521 8.0244-6.0648-1.3251 1.2397-6.9178 4.0618-7.8651 12.053-8.7684 24.083-18.527 38.676-22.612 9.0998-1.145 18.249 0.45223 27.373 0.44071 19.888 0.96118 39.828 1.9438 59.728 1.2296 4.0414 0.77753 13.012-6.5263 4.9426-6.4803-4.4555-0.08126-8.91-0.09689-13.367-0.22408zm13.469 3.5938c0.51668 0.56106-0.68971 0.0478 0 0zm-139.25 53.656c3.5399-2.3412 4.7453 6.0821 0.72275 2.2158-0.75371-0.32657-1.66-1.5768-0.72275-2.2158z"/>
  <path d="m184.35 106.77c-5.7098 1.7018-11.642 6.1187-11.642 6.1187-1.3978 2.0252-2.0794 3.4799 0.84979 7.8944 1.4723-6.5661 6.8296-12.582 18.79-13.139-0.81298-2.3448-6.4396-1.7762-7.9976-0.87383z"/>
 </g>
</svg>
