<svg width="305" height="305" viewBox="0 0 305 305" fill="none" xmlns="http://www.w3.org/2000/svg">
<path fill-rule="evenodd" clip-rule="evenodd" d="M279.534 103.266C247.425 103.038 215.313 103.423 183.216 104.345C176.233 106.363 171.467 112.271 165.625 116.233C159.651 121.04 153.862 126.218 147.004 129.758C141.74 130.387 136.226 129.815 131.325 132.293C125.394 133.979 121.054 140.261 114.45 138.797C91.3373 137.027 66.8241 142.385 48.8123 157.611C36.0782 167.643 24.1342 178.652 11.5959 188.898C8.02544 189.966 9.89195 194.653 13.0237 191.617C17.7263 189.179 22.1582 182.457 26.8694 182.559C32.0768 182.418 35.6244 177.065 40.2477 175C59.8018 161.652 79.9411 147.507 103.527 142.586C108.69 141.871 114.093 141.902 119.124 143.305C122.89 146.866 123.233 152.858 127.735 155.99C128.745 159.462 131.039 162.967 134.988 161.528C138.264 163.686 130.144 171.133 137.035 169.78C142.35 168.524 147.188 160.233 152.836 164.188C155.317 167.599 158.848 173.584 163.571 169.287C169.209 165.859 155.995 160.857 164.547 159.574C171.553 156.023 175.043 148.502 179.126 142.206C182.055 136.907 184.618 131.129 184.712 124.972C180.309 122.627 177.71 129.542 173.767 130.722C168.955 134.008 163.834 136.947 158.264 138.737C152.206 137.413 159.502 131.827 162.321 130.881C174.36 122.123 186.376 112.376 200.952 108.295C210.041 107.152 219.179 108.747 228.293 108.735C248.157 109.696 268.074 110.677 287.951 109.964C291.987 110.74 300.947 103.445 292.888 103.491C288.437 103.41 283.988 103.394 279.536 103.267L279.534 103.266ZM292.988 106.856C293.504 107.416 292.299 106.903 292.988 106.856V106.856ZM153.901 160.449C157.437 158.11 158.641 166.524 154.623 162.662C153.87 162.336 152.965 161.087 153.901 160.449Z" fill="white"/>
<path fill-rule="evenodd" clip-rule="evenodd" d="M168.265 165.338C162.562 167.038 156.637 171.45 156.637 171.45C155.241 173.473 154.56 174.926 157.485 179.335C158.956 172.777 164.307 166.768 176.253 166.211C175.441 163.869 169.821 164.437 168.265 165.339L168.265 165.338Z" fill="white"/>
</svg>
