<?xml version="1.0" encoding="iso-8859-1"?>
<!-- Generator: Adobe Illustrator 19.0.0, SVG Export Plug-In . SVG Version: 6.00 Build 0)  -->
<svg version="1.1" id="Layer_1" xmlns="http://www.w3.org/2000/svg" xmlns:xlink="http://www.w3.org/1999/xlink" x="0px" y="0px"
	 viewBox="0 0 301.86 301.86" style="enable-background:new 0 0 301.86 301.86;" xml:space="preserve">
<g>
	<g>
		<g>
			<path d="M211.742,61.14c-3.124-0.684-6.32-1.028-9.5-1.028c-16.8,0-31.972,9.616-39.532,24.012
				c-5.392-0.404-11.396-0.652-16.844-0.704l-5.948-79.104c-0.1-1.356-0.408-3.24-1.86-4c-1.656-0.872-3.448,0.196-5.74,1.544
				c-2.056,1.208-4.616,2.716-7.34,2.916c-2.744,0.236-5.48-0.9-7.7-1.784c-2.456-0.988-4.396-1.772-5.904-0.668
				c-1.32,0.968-1.34,2.88-1.24,4.232l3.608,47.94c-0.328,0.264-0.64,0.544-0.916,0.872l-5.828,6.9l4.04-18.204
				c0.244-1.1-0.02-2.236-0.724-3.116c-0.712-0.888-1.772-1.396-2.908-1.396c-0.004,0-0.008,0-0.012,0l0.004-0.16
				c0.028-1.008-0.344-1.96-1.048-2.68c-0.696-0.716-1.672-1.128-2.672-1.128c-0.192,0-0.572,0.04-0.76,0.076l-0.78,0.16
				l-0.632-0.936c-0.692-1.028-1.848-1.644-3.088-1.644c-1.236,0-2.36,0.604-3.048,1.564l-0.228-0.716
				c-0.02-0.068-0.044-0.132-0.072-0.2c-0.568-1.412-1.928-2.328-3.456-2.328c-1.02,0-1.98,0.416-2.672,1.124l-4.816-3.312
				c-0.624-0.428-1.356-0.656-2.112-0.656c-1.736,0-3.232,1.172-3.636,2.856l-1.504,6.252c-0.192-0.04-0.384-0.06-0.58-0.06
				c-0.78,0-1.54,0.324-2.088,0.916c-0.768,0.836-0.964,2.048-0.496,3.084l2.976,6.592c0.3,0.668,0.792,1.228,1.416,1.62l0.452,0.28
				c-1.876,0.536-3.608,1.472-5.092,2.764c-0.876,0.76-1.352,1.904-1.272,3.056c0.004,0.044,0.008,0.088,0.012,0.132l-0.852,0.18
				c-1.04,0.064-2.004,0.556-2.668,1.372c-0.336,0.412-0.576,0.884-0.708,1.38l-8.92-0.804c-0.084-0.008-0.256-0.016-0.34-0.016
				c-1.516,0-2.872,0.908-3.452,2.312c-0.572,1.392-0.256,2.976,0.812,4.036l4.248,4.224c-0.296,0.512-0.468,1.1-0.492,1.724
				c-0.06,1.712,1.056,3.232,2.712,3.696l6.456,1.804c1.104,0.308,2.252,0.472,3.404,0.484l17.02,0.184l6.172,4.332l1.7,8.228
				c-8.168,2.732-13.424,6.36-13.424,10.916c0,0.556,0.132,1.088,0.28,1.616l-0.272,0.024L99.87,284.984
				c0,11.08,23.576,16.876,46.864,16.876c23.272,0,48.012-5.916,48.008-16.776c0.08-1.46,9.96-155.4,11.324-176.672l36.408,7.952
				l2.768,0.604l0.604-2.768C251.098,90.196,235.794,66.392,211.742,61.14z M160.91,87.988c-0.58,1.428-1.068,2.904-1.5,4.404
				c-4.188-0.256-8.736-0.412-12.9-0.452l-0.34-4.516C151.13,87.476,156.362,87.68,160.91,87.988z M118.346,115.604l4.564,60.664
				c0.172,2.268,0.884,4.352,1.952,6.2l-7.46,14.828c-1.36,2.704-1.584,5.784-0.624,8.676c0.96,2.892,2.972,5.236,5.676,6.588
				l18.468,9.292c1.144,0.576,2.368,0.876,3.604,1.04l-11.136,5.052c-5.712,2.588-8.248,9.344-5.656,15.056l8.54,18.828
				c1.248,2.756,3.508,4.864,6.36,5.936c1.308,0.492,2.668,0.736,4.024,0.736c1.592,0,3.184-0.34,4.672-1.016l17.916-8.124
				c5.712-2.588,8.248-9.344,5.66-15.056l-8.544-18.828c-1.248-2.756-3.508-4.864-6.36-5.936c-1.692-0.636-3.468-0.808-5.216-0.62
				c0.536-0.648,1.02-1.344,1.408-2.116l8.84-17.576c1.364-2.704,1.584-5.784,0.628-8.676c-0.956-2.892-2.972-5.232-5.68-6.588
				l-8.092-4.072c0.652-1.864,0.956-3.84,0.804-5.86l-0.356-4.732c0.592-0.048,1.188-0.072,1.772-0.212l20.1-4.848
				c6.092-1.468,9.856-7.624,8.388-13.724l-4.612-19.124c-0.708-2.94-2.532-5.436-5.128-7.024c-2.596-1.592-5.656-2.076-8.588-1.364
				l-15.14,3.652l-0.72-9.552c16.648-0.268,32.968-2.224,44.064-5.784c-3.616,60.776-9.508,159.844-9.508,160.064
				c0,5.224-14.992,11.04-36.5,11.04c-21.264,0-35.556-5.708-35.56-11.128L98.022,111.468
				C103.674,113.276,110.662,114.656,118.346,115.604z M92.318,104.876c0.16-1.708,2.704-3.468,7.152-5.06l1.756,8.484
				C97.478,107.228,94.498,106.06,92.318,104.876z M116.354,89.148l0.344,4.56c-3.34,0.44-6.788,0.98-9.628,1.552l-0.924-4.464
				C109.07,90.184,112.686,89.628,116.354,89.148z M105.386,87.112l-1.652-7.98c0.716-1.336,3.396-4.892,11.496-4.948l0.832,11.072
				C112.306,85.776,108.69,86.38,105.386,87.112z M116.866,95.972l1.176,15.612c-2.944-0.376-5.704-0.8-8.236-1.276
				c0.128-0.44,0.188-0.9,0.092-1.36l-2.328-11.252C110.278,97.128,113.534,96.468,116.866,95.972z M172.314,154.584
				c1.54-10.932-0.612-22.38-10.264-28.716l2.744-0.66c0.708-0.168,1.42-0.252,2.132-0.252c1.652,0,3.284,0.456,4.744,1.348
				c2.084,1.272,3.544,3.268,4.108,5.62l4.612,19.124c1.176,4.884-1.836,9.808-6.716,10.988l-20.1,4.848
				c-2.356,0.556-4.792,0.18-6.876-1.092c-2.084-1.272-3.544-3.268-4.108-5.624l-4.612-19.132c-0.568-2.352-0.18-4.792,1.092-6.876
				s3.268-3.544,5.62-4.108l15.948-3.844c0.02,0.016,0.016,0.04,0.036,0.052c9.932,5.932,12.052,17.304,10.544,28.024
				C171.118,154.996,172.214,155.304,172.314,154.584z M144.99,212.396c-0.548,0.484,0.256,1.284,0.8,0.8
				c8.236-7.308,13.876-17.424,10.644-28.48l2.52,1.268c2.16,1.088,3.772,2.964,4.54,5.28c0.768,2.316,0.588,4.78-0.496,6.944
				l-8.84,17.576c-1.088,2.16-2.964,3.772-5.28,4.54c-2.324,0.772-4.78,0.584-6.948-0.496l-18.468-9.292
				c-4.484-2.252-6.296-7.74-4.044-12.228l6.9-13.708c0.016,0.02,0.028,0.044,0.044,0.064c-0.008-0.044-0.004-0.084-0.016-0.124
				l1.912-3.804c2.252-4.476,7.736-6.292,12.228-4.044l14.636,7.364c0.004,0.012-0.008,0.02-0.004,0.036
				C158.846,195.152,153.154,205.152,144.99,212.396z M145.438,258.156c10.984-0.516,21.86-4.856,26.228-15.488l1.168,2.576
				c2.072,4.572,0.036,9.976-4.536,12.056l-17.916,8.124c-2.208,1.004-4.676,1.08-6.96,0.22c-2.28-0.86-4.088-2.544-5.092-4.752
				l-8.54-18.828c-1-2.204-1.08-4.676-0.22-6.96c0.86-2.28,2.544-4.088,4.752-5.092l17.916-8.124c2.208-0.996,4.68-1.076,6.96-0.22
				c2.28,0.86,4.088,2.544,5.092,4.752l6.784,14.952c-0.016,0.032-0.052,0.036-0.064,0.072c-3.92,10.904-14.784,15.08-25.572,15.588
				C144.71,257.056,144.706,258.188,145.438,258.156z M140.386,160.692c0.708,2.94,2.532,5.436,5.128,7.028
				c1.232,0.756,2.584,1.164,3.96,1.412l0.384,5.108c0.116,1.524-0.124,2.98-0.544,4.36l-7.808-3.928
				c-0.996-0.5-2.036-0.784-3.08-0.972l-2.312-30.7L140.386,160.692z M136.934,173.492c-4.18-0.188-8.26,1.952-10.416,5.792
				c-0.396-1.032-0.696-2.1-0.78-3.228l-4.524-60.12c3.712,0.396,7.548,0.7,11.46,0.9L136.934,173.492z M120.914,111.932
				l-2.852-37.904c5.604-0.48,9.024-2.344,11.072-4.248l3.24,43.056C128.286,112.628,124.466,112.32,120.914,111.932z
				 M148.102,113.104L146.678,94.2c4.268,0.032,8.284,0.196,12.14,0.428c-0.04,0.18-0.104,0.352-0.14,0.536l-0.604,2.768
				l2.768,0.604l34.444,7.524C186.51,109.648,170.106,112.788,148.102,113.104z M146.33,127.328l-2.168,0.524
				c-4.5,1.084-7.716,4.732-8.504,9.02l-1.504-19.968c3.412,0.152,6.86,0.236,10.308,0.236c0.368,0,0.732-0.008,1.1-0.012
				L146.33,127.328z M133.758,4.304c1.084-0.636,2.564-1.508,2.932-1.508c0.004,0,0.008,0,0.008,0
				c0.004,0.004,0.284,0.308,0.392,1.732l8.172,108.604c-0.272,0-0.528,0.008-0.8,0.008c-3.724,0-7.228-0.096-10.608-0.244
				l-3.356-44.58c0.304-0.4,0.568-0.784,0.772-1.136c0.66-1.136,0.664-2.552,0.008-3.692c-0.292-0.512-0.7-0.936-1.176-1.248
				l3.176-3.148c1.04-1.032,1.38-2.524,0.88-3.896c-0.316-0.872-0.948-1.58-1.74-2.004l0.408-1.528c0.3-1.124,0.072-2.292-0.628-3.2
				c-0.704-0.916-1.824-1.468-2.988-1.468c-0.108,0-0.208,0.032-0.312,0.04L125.922,7.48C128.982,7.048,131.622,5.556,133.758,4.304
				z M112.97,6.34c-0.096-1.264,0.076-1.68,0.052-1.712c0.416-0.1,2.048,0.524,3.208,0.988c2.3,0.92,5.144,2,8.224,1.964l3,39.856
				c-0.572,0.308-1.064,0.76-1.416,1.344l-3.28,5.372l-2.76-0.868c-0.652-0.204-1.332-0.308-2.016-0.308
				c-0.508,0-1.004,0.06-1.488,0.168L112.97,6.34z M91.622,34.396c0.34,0,0.68,0.188,0.828,0.552l2.66,8.356
				c0.148,0.372,0.488,0.552,0.824,0.552c0.38,0,0.76-0.228,0.876-0.664l0.74-6.452c0.112-0.428,0.496-0.664,0.876-0.664
				c0.28,0,0.556,0.124,0.736,0.392l1.36,2.02c0.168,0.248,0.448,0.392,0.74,0.392c0.06,0,0.124-0.008,0.184-0.02l2.048-0.424
				c0.064-0.012,0.124-0.02,0.188-0.02c0.488,0,0.9,0.396,0.888,0.896l-0.068,2.556c-0.012,0.504,0.4,0.896,0.888,0.896
				c0.06,0,0.124-0.008,0.188-0.02l1.648-0.34c0.064-0.012,0.128-0.02,0.188-0.02c0.552,0,0.988,0.504,0.864,1.06l-5.756,25.928
				c-0.136,0.612,0.36,1.064,0.88,1.064c0.244,0,0.492-0.1,0.684-0.324l10.912-12.92c0.752-0.888,1.852-1.38,2.984-1.38
				c0.388,0,0.784,0.06,1.168,0.18l4.196,1.316c0.088,0.028,0.18,0.04,0.272,0.04c0.308,0,0.608-0.16,0.772-0.432l4.064-6.66
				c0.188-0.304,0.472-0.436,0.756-0.436c0.528,0,1.048,0.46,0.876,1.1l-0.932,3.492c-0.14,0.524,0.232,1.048,0.78,1.092
				l0.796,0.068c0.752,0.064,1.084,0.964,0.548,1.492l-5.96,5.904c-0.564,0.556-0.168,1.496,0.624,1.496c0.004,0,0.008,0,0.012,0
				l2.068-0.024c0.004,0,0.008,0,0.012,0c0.68,0,1.116,0.716,0.776,1.3c-1.164,2-4.496,5.576-13.46,5.592
				c-12.444,0.02-14.576,7.508-14.576,7.508l6.344,30.668l-0.6,0.124c-0.144-0.032-0.284-0.064-0.424-0.096l-14.716-74.8
				c-0.02-0.104-0.096-0.176-0.168-0.248C91.346,34.436,91.482,34.396,91.622,34.396z M90.562,74.124
				c-0.148-0.1-0.32-0.156-0.5-0.16l-17.62-0.192c-0.904-0.012-1.804-0.136-2.672-0.38l-6.456-1.804
				c-0.896-0.252-0.844-1.516,0.072-1.708c0.696-0.144,0.96-0.988,0.46-1.48l-5.772-5.736c-0.564-0.56-0.14-1.5,0.64-1.5
				c0.028,0,0.06,0,0.088,0.004l11.104,0.992c0.028,0.004,0.056,0.004,0.084,0.004c0.56,0,0.996-0.508,0.884-1.06l-0.168-0.82
				c-0.116-0.552,0.32-1.06,0.884-1.06c0.028,0,0.052,0,0.08,0.004l2.188-0.46C74.414,59.224,92.53,70.04,93.674,70.04
				c0.036,0,0.056-0.012,0.056-0.032l0.032-1c0.008-0.304-0.14-0.588-0.396-0.756L75.418,56.56c-0.488-0.32-0.532-1.008-0.092-1.392
				c1.58-1.376,3.544-2.248,5.636-2.508l3.196-0.4c0.832-0.104,1.084-1.176,0.376-1.616l-4.924-3.068
				c-0.148-0.092-0.264-0.224-0.336-0.384L76.298,40.6l1.66,0.584c0.1,0.036,0.2,0.052,0.3,0.052c0.404,0,0.78-0.272,0.876-0.684
				l2-8.316c0.104-0.424,0.484-0.684,0.88-0.684c0.172,0,0.352,0.052,0.508,0.16l6.456,4.436c0.156,0.108,0.332,0.156,0.508,0.156
				c0.316,0,0.628-0.164,0.792-0.464l0.124-0.22l14.484,73.632c-0.204-0.048-0.404-0.096-0.604-0.148l-6.136-29.66L90.562,74.124z
				 M98.11,93.236l0.908,4.392c-4.648,1.66-7.792,3.664-8.704,6.004c-1.588-1.164-2.436-2.312-2.436-3.368
				C87.878,98.084,91.454,95.512,98.11,93.236z M190.754,284.992c0,6.088-18.076,12.876-44.012,12.876
				c-25.26,0-42.864-6.784-42.872-13.052L88.346,107.012c1.924,1.348,4.384,2.572,7.336,3.656l12.96,160.712
				c0,7.584,16.256,13.304,37.82,13.304c19.056,0,38.764-4.976,38.764-13.256c0.052-1.092,8.628-145.196,9.56-160.892
				c2.964-1.088,5.456-2.308,7.376-3.656C190.754,284.644,190.754,284.908,190.754,284.992z M203.566,104.964l-0.14,0.64
				c-0.868-0.176-1.72-0.432-2.572-0.692l0.112-0.516c0.076-0.356,0.548-0.62,1.1-0.62c0.128,0,0.26,0.016,0.388,0.044
				c0.4,0.088,0.748,0.3,0.956,0.584C203.51,104.54,203.614,104.744,203.566,104.964z M240.258,112.98l-33.924-7.408
				c0.436-2.004-1.028-4.028-3.276-4.52c-0.336-0.072-0.668-0.108-0.992-0.108c-1.864,0-3.496,1.144-3.868,2.852l-33.74-7.368
				c4.592-20.58,25.224-33.612,46.016-29.056C231.342,71.924,244.662,92.36,240.258,112.98z M243.086,113.596l-0.608-0.132
				c4.672-21.84-9.428-43.492-31.516-48.312c-22.024-4.792-43.856,8.988-48.72,30.792l-0.792-0.172
				c4.248-19.448,21.6-32.824,40.796-32.824c2.936,0,5.912,0.312,8.892,0.964C233.618,68.82,247.982,91.176,243.086,113.596z"/>
			<path d="M209.09,103.068c0.176,0.944,0.864,1.66,1.796,1.864l25.536,5.576c0.168,0.04,0.336,0.056,0.504,0.056
				c0.452,0,0.904-0.136,1.288-0.4c0.544-0.368,0.916-0.948,1.02-1.6c1.204-7.344-0.148-14.96-3.808-21.444
				c-0.32-0.576-0.864-0.988-1.492-1.14c-0.624-0.16-1.272-0.044-1.816,0.308l-21.996,14.38
				C209.314,101.188,208.918,102.112,209.09,103.068z M210.926,101.896l21.996-14.38c0.14-0.088,0.296-0.136,0.46-0.136
				c0.068,0,0.132,0.008,0.2,0.024c0.24,0.06,0.436,0.212,0.564,0.428v0.004c3.492,6.196,4.784,13.472,3.636,20.484
				c-0.044,0.252-0.184,0.48-0.392,0.62c-0.204,0.124-0.428,0.16-0.652,0.124l-25.54-5.576c-0.512-0.112-0.632-0.56-0.656-0.692
				C210.514,102.668,210.47,102.192,210.926,101.896z"/>
			<path d="M213.218,69.184c-0.62-0.172-1.292-0.08-1.844,0.256c-0.56,0.336-0.94,0.872-1.084,1.512l-5.916,27.088
				c-0.208,0.936,0.168,1.896,0.948,2.436c0.408,0.276,0.864,0.416,1.32,0.416c0.432,0,0.872-0.124,1.264-0.384l23.112-15.024
				c0.54-0.352,0.908-0.896,1.028-1.532c0.12-0.636-0.024-1.304-0.4-1.832C227.158,75.812,220.614,71.216,213.218,69.184z
				 M230.61,83.684c-0.048,0.24-0.184,0.44-0.388,0.576L207.11,99.284c-0.432,0.28-0.828,0.064-0.94-0.012
				c-0.108-0.08-0.468-0.376-0.352-0.912l5.916-27.088c0.056-0.244,0.2-0.44,0.408-0.568c0.14-0.084,0.296-0.128,0.456-0.128
				c0.08,0,0.156,0.012,0.236,0.032c7.068,1.94,13.328,6.336,17.624,12.376C230.602,83.188,230.654,83.44,230.61,83.684z"/>
			<path d="M182.806,75.516c-0.348-0.552-0.888-0.92-1.52-1.044c-0.628-0.116-1.3,0.024-1.836,0.412
				c-6.032,4.38-10.432,10.74-12.404,17.912c-0.176,0.632-0.084,1.316,0.252,1.876c0.336,0.556,0.868,0.932,1.492,1.068l25.54,5.58
				c0.172,0.04,0.34,0.06,0.508,0.06c0.748,0,1.44-0.36,1.892-1c0.56-0.792,0.584-1.796,0.076-2.62L182.806,75.516z M195.526,99.524
				c-0.08,0.108-0.368,0.444-0.884,0.352l-25.54-5.58c-0.228-0.052-0.416-0.188-0.544-0.392c-0.128-0.216-0.164-0.472-0.092-0.724
				c1.88-6.848,6.084-12.924,11.848-17.104c0.204-0.152,0.456-0.192,0.688-0.16c0.232,0.048,0.424,0.18,0.552,0.384l14,22.236
				C195.846,99.004,195.606,99.412,195.526,99.524z"/>
			<path d="M208.678,68.852c-0.36-0.532-0.932-0.9-1.572-1c-7.544-1.236-15.428,0.208-22.152,4.076v0.004
				c-0.564,0.324-0.972,0.872-1.128,1.5s-0.052,1.276,0.296,1.82L198.87,98.54c0.436,0.692,1.156,1.084,1.94,1.084
				c0.14,0,0.28-0.012,0.42-0.036c0.952-0.172,1.676-0.868,1.88-1.816l5.916-27.092C209.17,70.04,209.046,69.392,208.678,68.852z
				 M207.586,70.364l-5.912,27.096c-0.116,0.536-0.564,0.652-0.696,0.676c-0.148,0.036-0.584,0.064-0.868-0.384l-14.748-23.288
				c-0.124-0.204-0.164-0.44-0.108-0.68c0.064-0.248,0.216-0.448,0.432-0.58c6.424-3.7,13.936-5.08,21.184-3.9
				c0.244,0.04,0.448,0.172,0.584,0.376C207.59,69.88,207.638,70.124,207.586,70.364z"/>
		</g>
	</g>
</g>
<g>
</g>
<g>
</g>
<g>
</g>
<g>
</g>
<g>
</g>
<g>
</g>
<g>
</g>
<g>
</g>
<g>
</g>
<g>
</g>
<g>
</g>
<g>
</g>
<g>
</g>
<g>
</g>
<g>
</g>
</svg>
