<svg width="602" height="482" viewBox="0 0 602 482" fill="none" xmlns="http://www.w3.org/2000/svg">
<path fill-rule="evenodd" clip-rule="evenodd" d="M54.524 84.4892C54.524 84.4892 116.136 162.474 128.336 218.528C140.536 274.58 124.849 306.292 101.668 344.066C101.668 344.066 143.586 310.913 166.157 311.133C228.993 311.742 341.844 383.634 341.844 383.634C341.844 383.634 266.811 326.973 54.524 84.4918V84.4892Z" fill="white" stroke="white" stroke-width="0.391246"/>
<path fill-rule="evenodd" clip-rule="evenodd" d="M157.009 110.078C157.009 110.078 246.678 191.11 243.022 258.736C239.362 326.364 193.972 355.524 193.972 355.524C193.972 355.524 264.373 301.994 311.346 302.603C358.317 303.213 381.172 323.289 365.027 379.094C365.027 379.094 411.999 316.616 411.999 261.78C411.999 206.947 343.067 161.86 343.067 161.86C343.067 161.86 277.185 156.376 157.013 110.073L157.009 110.078Z" fill="white" stroke="white" stroke-width="0.391246"/>
<path fill-rule="evenodd" clip-rule="evenodd" d="M330.256 160.647C330.256 160.647 344.286 137.495 326.596 126.529C308.905 115.562 262.848 108.251 185.071 125.919C185.071 125.919 237.532 112.82 237.532 87.2314C237.532 61.6427 210.996 38.7958 182.02 15.9481C182.02 15.9481 310.66 50.6848 323.606 51.5462C336.547 52.4078 377.956 78.2566 377.094 104.536C376.231 130.816 352.939 148.91 330.259 160.647H330.256Z" fill="white" stroke="white" stroke-width="0.391246"/>
<path fill-rule="evenodd" clip-rule="evenodd" d="M399.951 90.3187C399.951 90.3187 431.009 114.013 429.715 137.707C428.421 161.402 397.364 187.251 397.364 187.251C397.364 187.251 454.302 163.556 479.751 163.556C505.2 163.556 528.494 175.189 519.867 204.483C519.867 204.483 553.081 190.267 553.081 161.833C553.081 133.4 512.965 113.152 512.965 113.152C512.965 113.152 482.77 108.413 399.956 90.3187H399.951Z" fill="white" stroke="white" stroke-width="0.391246"/>
<path fill-rule="evenodd" clip-rule="evenodd" d="M396.501 185.1C396.501 185.1 446.538 223.872 444.813 266.523C443.087 309.173 420.657 335.022 385.718 380.253C385.718 380.253 450.851 315.2 481.912 310.462C510.058 306.167 528.497 313.046 509.95 357.42C509.95 357.42 562.142 322.954 562.142 273.412C562.142 223.869 519.439 204.913 519.439 204.913C519.439 204.913 501.322 213.099 396.506 185.096L396.501 185.1Z" fill="white" stroke="white" stroke-width="0.391246"/>
<path fill-rule="evenodd" clip-rule="evenodd" d="M696.615 235.151L552.659 353.101C552.659 353.101 524.621 400.054 501.329 424.61C478.036 449.166 460.084 481.194 460.084 481.194C460.084 481.194 251.133 481.925 211.021 480.633C170.905 479.34 159.681 414.28 159.681 414.28C147.172 403.941 144.611 406.526 124.769 405.233C104.926 403.941 95.847 375.066 88.082 364.296C80.318 353.526 61.328 351.802 50.113 349.218C38.898 346.633 41.922 333.725 41.922 333.725C79.45 342.341 185.556 351.404 195.044 351.404C204.533 351.404 206.711 364.742 210.594 372.928C214.476 381.113 226.964 378.959 231.277 378.959H379.685C431.446 378.959 544.472 347.936 544.472 347.936L696.618 235.146L696.615 235.151ZM535.713 364.3C535.345 364.283 534.976 364.32 534.619 364.413C534.619 364.413 487.328 375.759 430.444 387.106C373.564 398.453 306.91 409.762 269.246 409.762H230.786C230.535 409.724 218.917 407.937 210.028 402.147C205.495 399.195 195.475 391.227 185.495 384.09C180.505 380.523 175.494 377.151 170.926 374.591C166.358 372.031 162.467 370.105 158.396 370.105C148.248 370.105 124.012 369.238 124.012 369.238C126.434 373.495 140.142 375.1 158.396 377.456C159.5 377.456 163.149 378.672 167.303 380.999C171.457 383.327 176.354 386.597 181.23 390.084C190.984 397.057 200.601 404.819 205.989 408.328C216.846 415.4 229.918 417.073 229.918 417.073L230.144 417.111H269.246C308.364 417.111 374.841 405.683 431.881 394.305C448.139 390.964 462.85 387.817 535.716 364.299L535.713 364.3ZM497.329 404.484C496.96 404.467 496.591 404.504 496.234 404.597C496.234 404.597 455.397 414.388 403.987 424.878C402.639 425.079 401.498 426.007 401.043 427.29C399.119 442.85 492.376 410.057 497.324 404.485L497.329 404.484Z" fill="white" stroke="white" stroke-width="0.391246"/>
<path fill-rule="evenodd" clip-rule="evenodd" d="M591.037 316.581C591.037 316.581 603.978 275.654 575.078 255.406C575.078 255.406 672.561 245.067 673.424 313.996C674.287 382.926 609.153 379.643 600.957 379.643C592.762 379.643 562.843 374.904 542.139 362.41C542.139 362.41 626.407 382.926 625.112 344.152C625.112 344.152 625.112 317.011 591.036 316.581H591.037Z" fill="white" stroke="white" stroke-width="0.391246"/>
<path d="M49.036 337.334C49.036 337.334 52.086 303.825 2.064 191.113" stroke="white" stroke-width="1.3302" stroke-linecap="round"/>
<path d="M83.642 207.402C88.909 209.71 88.887 216.587 92.252 220.675C88.886 222.222 84.433 219.988 80.684 220.968H33.016C29.561 216.13 25.75 211.534 21.477 207.393C42.199 207.39 62.92 207.393 83.642 207.402Z" fill="white"/>
<path d="M100.422 238.188C81.113 238.046 61.8 238.518 42.496 237.955C40.795 233.222 38.335 228.793 35.538 224.624H94.27C96.321 229.146 98.371 233.667 100.422 238.188Z" fill="white"/>
<path d="M103.549 245.036C104.207 248.464 108.478 251.53 106.497 255.1C90.057 255.222 73.603 254.612 57.151 255.128C53.73 254.313 47.0621 257.435 46.4781 253.237C45.8151 249.394 44.949 245.581 43.794 241.855H102.089C102.576 242.915 103.062 243.976 103.549 245.036Z" fill="white"/>
<path d="M46.291 314.866C46.291 314.866 55.747 257.52 38.666 229.494C21.585 201.468 4.20004 196.29 4.20004 196.29" stroke="white" stroke-width="0.391246"/>
<path d="M649.716 270.532L450.863 71.3355L458.988 374.324" stroke="white" stroke-width="0.782464"/>
<path fill-rule="evenodd" clip-rule="evenodd" d="M447.203 40.9391L496.004 364.403L486.975 365.304L447.203 40.9358V40.9391Z" fill="white" stroke="white" stroke-width="0.391246"/>
<path fill-rule="evenodd" clip-rule="evenodd" d="M347.03 380.633C347.03 380.633 335.293 366.205 331.681 342.759C328.07 319.314 278.412 0.0913544 278.412 0.0913544L320.847 383.335L347.03 380.629V380.633Z" fill="white" stroke="white" stroke-width="0.391246"/>
<path fill-rule="evenodd" clip-rule="evenodd" d="M166.453 352.683L135.691 116.157L155.619 354.485L166.453 352.681V352.683Z" fill="white" stroke="white" stroke-width="0.391246"/>
</svg>
