<?xml version="1.0" encoding="iso-8859-1"?>
<!-- Generator: Adobe Illustrator 18.0.0, SVG Export Plug-In . SVG Version: 6.00 Build 0)  -->
<!DOCTYPE svg PUBLIC "-//W3C//DTD SVG 1.1//EN" "http://www.w3.org/Graphics/SVG/1.1/DTD/svg11.dtd">
<svg version="1.1" id="Capa_1" xmlns="http://www.w3.org/2000/svg" xmlns:xlink="http://www.w3.org/1999/xlink" x="0px" y="0px"
	 viewBox="0 0 297 297" style="enable-background:new 0 0 297 297;" xml:space="preserve">
<path d="M234.776,0c-30.632,0-56.21,22.337-61.287,51.576l-72.648-0.001L52.325,3.549c-1.957-1.938-4.602-3.026-7.357-3.026h-34.51
	C4.683,0.522,0,5.205,0,10.981s4.683,10.458,10.458,10.458h30.21l30.443,30.137H27.804c-4.268,0-8.107,2.593-9.701,6.552
	c-1.594,3.959-0.621,8.489,2.455,11.446l100.229,96.31v110.201H85.733c-5.775,0-10.458,4.683-10.458,10.458
	c0,5.775,4.683,10.458,10.458,10.458h91.023c5.774,0,10.457-4.683,10.457-10.458c0-5.775-4.683-10.458-10.457-10.458h-35.055
	V165.885l55.935-53.748c10.664,7.987,23.528,12.311,37.14,12.311c34.311,0,62.224-27.913,62.224-62.224
	C297,27.913,269.087,0,234.776,0z M268.684,85.777L252.45,69.544h22.972C274.353,75.492,272.012,81,268.684,85.777z M242.097,44.55
	V21.578c5.948,1.068,11.456,3.41,16.233,6.738L242.097,44.55z M227.456,44.55l-16.224-16.224c4.776-3.331,10.282-5.676,16.224-6.746
	V44.55z M242.097,79.897l16.233,16.233c-4.777,3.328-10.285,5.67-16.233,6.738V79.897z M252.45,54.903l16.233-16.233
	c3.328,4.777,5.67,10.285,6.738,16.233H252.45z M200.879,38.68l12.896,12.896h-18.903C196.124,46.9,198.18,42.551,200.879,38.68z
	 M208.709,72.491l-77.463,74.435L53.78,72.49L208.709,72.491z M227.456,83.484v19.394c-5.143-0.913-10.023-2.774-14.434-5.524
	L227.456,83.484z"/>
<g>
</g>
<g>
</g>
<g>
</g>
<g>
</g>
<g>
</g>
<g>
</g>
<g>
</g>
<g>
</g>
<g>
</g>
<g>
</g>
<g>
</g>
<g>
</g>
<g>
</g>
<g>
</g>
<g>
</g>
</svg>
