<svg width="56" height="88" fill="none" xmlns="http://www.w3.org/2000/svg"><path d="M43.447 83.209l-.222-.443a3.244 3.244 0 00-1.856-.96c-.954-.196-1.92-.356-2.765-.885l-1.26-.674c-.081 0-.162.014-.21-.07l-.553-.237c-1.32-.349-2.662-.616-3.95-1.061a.778.778 0 01-.525-.109c-.087.012-.178.03-.22-.08-.242-.118-.209-.335-.197-.546l-.432-.933a1.843 1.843 0 01-.45-.61.529.529 0 01-.198-.438 1.092 1.092 0 01-.079-.634v-.632c.035-.752-.063-1.508.083-2.256a3.284 3.284 0 01.018-.89v-7.97a3.96 3.96 0 01-.018-.984 20.879 20.879 0 010-3.767v-3.587c-.144-.755-.067-1.518-.067-2.277 0-.706-.073-1.417.065-2.122l.024-.483c-.006-.335.01-.67.047-1.004.009-.058.021-.115.038-.171 0-.063.012-.126.015-.197a2.748 2.748 0 01.087-.868c0-.06 0-.12.016-.18-.02-.258.01-.517.089-.764 0-.06.014-.12.02-.18-.02-.266.008-.533.083-.789l.015-.165c-.02-.226.01-.454.09-.667.015-.197-.05-.416.084-.603.044-.144.014-.31.129-.433.087-.678.266-1.312.839-1.76l.423-.44.079-.094.442-.548c.12-.268.295-.51.512-.708a.577.577 0 01.229-.312.984.984 0 01.312-.447l.118-.281c-.146-.864-.126-1.022.198-1.48-.38.023-.395.535-.763.52-1.104.255-2.19.607-3.33.69-.367.028-.732.055-1.1.069-.185 0-.375.016-.41.232-.042.256.174.33.36.363.224.033.451.044.678.033.147 0 .232 0 .184.197-.026.106.053.197-.148.238a8.7 8.7 0 01-1.41.097c-.16 0-.395-.07-.395.197 0 .183.197.197.361.224.198.02.358-.017.488.282.077.175.302.21.54.236-.014-.03 0-.018 0 0 .132.01.264.03.394.061a3.518 3.518 0 01-1.315-.021c-.14-.036-.306-.05-.334.14-.02.14.117.196.24.23.286.057.572.104.896.161-.318.217-.676.227-.998.337-.146.05-.341.045-.323.264.021.26.244.218.395.197.643-.063 1.281-.18 1.905-.349.115-.03.22-.114.376-.051a18.84 18.84 0 00-1.067 4.444c-.166 1.341-.051 2.688-.055 4.029-.02 5.887.014 11.773 0 17.66 0 2.01 0 4.017-.099 6.024-.014.27-.073.372-.351.35-.33.007-.66-.005-.988-.035-.371-.073-.612.09-.662.394-.049.303.29.32.518.394h.373a.487.487 0 01-.377.177c-.282.262-.127.346.152.32a5.413 5.413 0 001.132-.172c.314-.095.343.041.357.277-.956.185-1.92.112-2.881.124-.174 0-.44-.098-.465.197-.021.244.224.209.395.244.885.197 1.778.065 2.724.103-.336.268-.72.277-1.063.394-.124.043-.256.076-.239.22.022.183.182.122.293.106.535-.076 1.088-.098 1.596-.26.395-.124.507.04.626.316.054.09.085.192.09.297-.096.756.441.967.988 1.181.967.352 1.96.63 2.969.831 1.11.247 2.184.639 3.191 1.166.871.457 1.811.628 2.765.74.54.068 1.06.238 1.535.5.223.107.39.302.462.538.197.65.17.711-.47.957-1.525.59-3.133.82-4.74 1.028-3.599.47-7.22.541-10.843.628-2.248.055-4.468-.278-6.701-.437-2.125-.152-4.219-.547-6.32-.908a5.987 5.987 0 01-2.052-.748.8.8 0 01-.415-.459 4.777 4.777 0 011.161-.455 15.234 15.234 0 003.664-1.56c1.686-1.043 3.575-1.466 5.496-1.799.447-.075.889-.175 1.324-.3.347-.102.43-.442.507-.74.184-.707.198-.707.871-.645.674.06 1.327.072 1.991.1.134 0 .312.022.312-.181 0-.203-.172-.122-.28-.146-.688-.146-1.407-.165-2.05-.604h1.2c.14 0 .366.104.395-.119.038-.27-.233-.26-.395-.297a3.054 3.054 0 00-.523-.031.524.524 0 01-.508-.197c.279 0 .463-.032.628.1h.054c.255-.04.681.168.725-.171.057-.44-.45-.105-.642-.296.156-.094.324-.03.482-.049.158-.02.363.053.395-.151.041-.288-.22-.249-.395-.284-.23.038-.467.007-.68-.089 0 .012-.014 0-.023-.01l-.166-.068a2.34 2.34 0 01.942.049.169.169 0 01.067.018c.298 0 .592.01.892 0 .212 0 .494 0 .5-.264.006-.264-.28-.239-.486-.25l-1.517-.113c-.274-.02-.351-.116-.337-.427.114-2.32.219-4.639.181-6.965-.039-2.463.03-4.922.018-7.39-.012-2.234-.085-4.47-.097-6.694 0-1.257.08-2.511 0-3.771-.12-2.101-.53-4.147-1.024-6.181-.024-.099-.054-.197-.084-.311.48-.083.919.147 1.371.096.231-.027.593.15.632-.258.032-.35-.33-.301-.539-.366a13.26 13.26 0 01-1.823-.638c.719.036 1.44.077 2.159.102.154 0 .407.138.438-.118.032-.256-.268-.267-.422-.283a11.895 11.895 0 01-1.898-.359l-.423-.108-.46-.146a.665.665 0 01.592.052c.178 0 .366-.03.518.104l1.408.142c.138.013.296.059.35-.126.053-.186-.101-.264-.23-.29-.237-.049-.332-.098-.38-.394-.05-.295-.532-.393-.79-.521-1.071-.506-2.2-.898-3.313-1.306a.592.592 0 01-.316-.315 109.093 109.093 0 00-5.317-7.906 24.298 24.298 0 01-1.676-2.591c-1.434-2.548-3.285-4.815-4.938-7.215-2.16-3.137-4.092-6.411-6.46-9.448a.673.673 0 01-.074-.094c-.035-.042-.067-.085-.1-.128h.023a1.204 1.204 0 01-.08-.199 6.185 6.185 0 01-.672-.953.28.28 0 01-.11-.114c-.056-.114-.09-.235-.131-.347-.016-.03-.034-.059-.051-.088a.17.17 0 00-.026-.028.352.352 0 01-.045-.42.222.222 0 01-.022-.043h.045l.03-.04a.358.358 0 01.5 0l.09.088a.572.572 0 01.305.023l.503.045c1.975.197 16.85 1.241 18.85 1.379 1.475 0 2.95-.022 4.424-.057 3.038-.071 12.443-.095 12.498-.089a.356.356 0 01.071.012s.557 0 .557-.01.026-.087.043-.089a3.921 3.921 0 011.43-.015c.77-.042 1.547.069 2.31-.126.088-.17.412-.016.414-.302 0-.246-.243-.126-.336-.23l-1.55-.136c.394-.356.86-.624 1.367-.787l-.47-.34c-.627.186-1.298.282-1.656.948a.518.518 0 01-.505.209c-3.682-.04-7.36.197-11.04.136-4.84-.067-9.678-.186-14.501-.518-3.22-.215-6.445-.29-9.648-.658l-.887-.102H2.267a1.75 1.75 0 01.8-.08c.454-.058.903-.174 1.367-.1 2.611-.28 5.236-.42 7.862-.417 5.294 0 10.587-.014 15.878 0 2.567.012 5.115.132 7.673.093.112-.211.142-.197.35-.058.07.052.197.03.292.044.185.023.395-.067.547.098h.106c-.015-.472.484-.275.682-.555-.91-.083-1.778-.284-2.684-.079-.186.042-.133-.09-.101-.197-.324-.07-.664.022-.988-.098l-2.595-.028c-1.064-.037-2.135.079-3.197-.077l-1.114-.025h-3.358c-1.761.01-3.523.025-5.285.03C16.95 6.741 6.938 6.303.59 7.894c-.257.02-.198.394-.469.406-.132.112-.023.293-.12.415l.018.526c.197.541.54 1 .835 1.489.159.123.267.3.304.496.353.525.707 1.05 1.063 1.575.205.154.357.368.434.613.113.071.181.195.182.328l.12.215c.25.222.43.51.52.83l.743 1.165c.154.037.185.167.227.293.188.174.325.396.395.642l.213.319c.166.077.28.234.3.415l.33.53c.235.142.324.394.435.616.155.146.27.33.333.532.18.18.321.396.413.634.251.286.465.602.636.941.11.07.189.182.217.31.227.207.401.465.51.752l.31.423c.383.307.618.727.871 1.132.21.214.384.46.514.73.227.208.4.467.505.755l.198.303c.197.071.258.252.332.422.255.281.468.6.631.943.236.238.412.53.514.848l.197.333c.204.193.356.434.44.701.15.147.258.33.317.53.323.426.607.881.847 1.359.248.289.46.606.634.945.214.212.392.457.527.726.137.122.283.237.29.443l.208.31c.198.07.255.246.326.415.156.137.271.314.334.512.099.09.197.181.178.335l.53.939c.182.12.3.314.323.53l.197.327c.186.108.309.3.33.513l1.164 1.595c.195.15.34.357.414.591.585.81 1.22 1.585 1.9 2.318a.73.73 0 01.417.514 8.372 8.372 0 011.272 2.924c.101.16.142.352.114.54l.308 1.254a.552.552 0 01.095.421.047.047 0 01.012.077c.09.17.124.363.099.553l.026.026-.016.033a.97.97 0 01.079.57l.024.28c.138.395.06.788.08 1.182l.024.788c.137.465.061.94.08 1.41 0 .161.019.325.027.486.144.46.055.934.075 1.4.049.715.057 1.431.026 2.147.054.175.07.36.047.541.016.183.03.364.03.545v13.656c-.03.717.082 1.441-.08 2.154l-.023.573c-.012.331.06.67-.08.985l-.017.16c.032.258.002.52-.089.765l.016.04-.026.033c.027.197-.005.398-.093.577-.128.093-.098.24-.126.366a.83.83 0 01-.298.532c-.07.17-.13.343-.324.415-.037.07-.075.138-.11.207l-.297.884-.132.164c-.334.167-.693.063-1.04.108a.045.045 0 01-.076.01 1.993 1.993 0 01-.76.098 3.68 3.68 0 01-.94.227c-.197.11-.414.177-.638.197-.261.147-.542.258-.834.326-.277.15-.527.353-.855.394l-.17.128a.878.878 0 01-.44.227c-.423.299-.89.532-1.383.69l-.523.328c-.186.147-.402.25-.632.303l-.29.124a4.68 4.68 0 01-1.397.526c-.081.051-.148.134-.26.108-.17.118-.37.187-.577.197-.36.197-.76.323-1.089.59a2.02 2.02 0 00-.592.89.475.475 0 000 .592c.112.124.09.285.112.433l.308.522c.17.143.396.224.504.43a1.4 1.4 0 00.352.198c.578.122 1.153.256 1.73.384.537.12 1.043.393 1.611.37.148-.026.3.006.425.09.336.13.69.208 1.049.233.231-.026.466.007.681.096.79.126 1.568.313 2.37.347.233-.024.468.002.69.077l.363.021c.249 0 .506-.045.745.073.271.01.542.034.811.075a.637.637 0 01.154.041l.042-.015.035.025c.336.028.682-.043 1.006.097h.15c.416-.005.832.016 1.246.06.054.008.107.019.16.032h.02a.513.513 0 01.363.012c.447-.01.893.009 1.337.059.06 0 .117.018.176.031h.018l.68.026c.258 0 .523-.04.771.075l.49.028h2.838l.395-.022c.277-.128.573-.065.861-.08l.395-.024a.648.648 0 01.12-.036 4.04 4.04 0 01.846-.047l.364-.026c.217-.122.458-.075.689-.088.231-.014.395-.174.632-.11a.793.793 0 01.525-.093l.198-.02a.393.393 0 01.102-.035c.214-.046.432-.063.65-.05l.21-.021c.235-.124.49-.067.736-.081l.285-.026c.247-.118.511-.072.768-.09l.038-.028.045.016a.99.99 0 01.549-.093l.035-.027.046.014c.168-.085.357-.122.545-.107.263-.13.552-.198.845-.197l.822-.33.745-.428.742-.738c.358-.644.316-1.331.119-2.024zm-12.95-42.861a.311.311 0 01.34-.034c-.105.138-.218.073-.34.034zM36.9 7.495a.505.505 0 01-.356-.27c.188.009.32.052.356.27zm4.718 77.86a20.245 20.245 0 01-4.59 1.053c-3.146.404-6.3.686-9.48.528-2.906-.146-5.803-.337-8.69-.675a58.354 58.354 0 01-7.03-1.193c-.703-.172-.88-.365-1.056-1.221 1.523 1.347 3.373 1.285 5.1 1.638 2.796.571 5.644.725 8.474 1.018 1.849.197 3.71.134 5.566.053 3.707-.16 7.39-.504 11.024-1.278.405-.086.8-.214 1.26-.34-.114.326-.379.34-.578.417zM49.965 9.668a.553.553 0 010 .058l.05-.054-.05-.004z" fill="#000"/><path d="M35.14 7.128c.9-.197 1.778 0 2.685.078-.198.276-.707.089-.682.565h.063a.853.853 0 01.241-.196c.17-.1.48-.134.417-.394-.05-.197-.337-.103-.517-.14h-.158c-.569-.083-1.146-.071-1.718-.106h-.431c-.032.102-.085.234.1.193zM43.028 9.67c0 .285-.326.131-.415.3l.253.022a.331.331 0 00.247-.291.282.282 0 00-.227-.325.573.573 0 00-.198.063c.097.104.344-.016.34.23zM42.51 8.513h.025a.255.255 0 00.012-.073.697.697 0 00-.592-.369l-.146.026a.43.43 0 01.223.069l.478.347zM38.876 10.113c-.018 0-.03.057-.044.089l.616-.028c.286-.02.573-.013.857.02a.78.78 0 000-.097 3.917 3.917 0 00-1.43.016zM34.546 38.574a.124.124 0 00-.065-.174c-.087-.037-.166.016-.239.065-.142.097-.245.258-.395.355a3.46 3.46 0 00-.117.197c.37.013.384-.499.763-.522-.324.459-.344.616-.198 1.48.17-.456-.067-.984.251-1.401zM36.198 7.72a.483.483 0 01-.118-.112s-.056.042-.127.09c.081.012.163.02.245.023z" fill="#000"/><path d="M36.079 7.608a.485.485 0 00.118.113c.28-.02.563-.004.84.047-.158-.165-.362-.075-.547-.098-.1-.014-.222 0-.293-.044-.197-.148-.237-.154-.35.057.036 0 .072 0 .105.014.071-.047.123-.092.127-.089z" fill="#000"/><path d="M36.196 7.72a2.02 2.02 0 01-.245-.023h-.01c.11.028.223.048.336.06a.357.357 0 01-.08-.036z" fill="#000"/><path d="M35.952 7.696c-.033 0-.069 0-.104-.013.031 0 .063.013.094.021l.01-.008zM36.195 7.72a.357.357 0 00.081.044c.252.024.506.024.759 0a3.32 3.32 0 00-.84-.044zM2.508 8.134c.174.014.349.018.523.01-.191-.004-.379.004-.523-.01z" fill="#000"/><path d="M3.03 8.144c-.175.008-.35.005-.523-.01.144.014.331 0 .523 0V8.12c0-.013.026-.025.04-.025a1.746 1.746 0 00-.8.079h.801c-.03-.006-.04-.018-.041-.03z" fill="#000"/><path d="M3.031 8.14a.244.244 0 01.038 0h-.038z" fill="#000"/><path d="M3.031 8.14h.038a.265.265 0 010-.04c-.014 0-.026 0-.04.026-.014.026.002.01.002.014z" fill="#000"/><path d="M3.031 8.143c0 .013.012.025.04.037a.111.111 0 010-.037.243.243 0 00-.04 0zM36.898 7.497c-.035-.22-.165-.263-.355-.27.07.14.201.24.355.27zM30.496 40.349c.123.039.235.104.34-.034a.31.31 0 00-.34.034zM28.335 76.107a.667.667 0 00-.198.023.08.08 0 000 .01.927.927 0 01.198-.033z" fill="#000"/><path d="M28.333 76.107a.924.924 0 00-.198.033.11.11 0 01-.053.097.486.486 0 00.377-.177h-.373c.023.018.04.042.047.07a.668.668 0 01.2-.023z" fill="#000"/><path d="M28.14 76.14v-.01h-.05v.028c.016 0 .031-.012.05-.018z" fill="#000"/><path d="M28.138 76.14c-.018 0-.034.019-.052.026-.018.008 0 .048 0 .072a.112.112 0 00.052-.097zM28.137 76.131a.137.137 0 00-.047-.071v.08l.047-.009zM46.084 13.859c0 .1 0 .197-.014.302.045-.044.083-.04.11.017 0-.185.053-.38-.082-.544a.184.184 0 01-.014.225z" fill="#000"/><path d="M46.07 14.16l.11.017c-.027-.057-.064-.061-.11-.018zM46.096 13.634c0 .075 0 .15-.014.225a.184.184 0 00.014-.225zM34.224 81.906a.039.039 0 00-.016 0h-.014l-.014.016.034-.014.01-.002zM34.282 81.872a.317.317 0 01-.032.022l.044-.022h-.012zM24.052 82.847c-.213-.043-.442-.075-.395-.394l-.356-.142c.123-.112.261-.075.395-.05.135.023.233-.105.336-.208.103-.102.445 0 .395-.293-.043-.25-.308-.232-.51-.272-1.451-.272-2.94-.319-4.374-.705-.302-.08-.593.168-.691.36-.1.194.256.255.41.379l.352.134-.014.06h-.34c-.041.43-.298.41-.618.314a18.01 18.01 0 00-1.165-.296c-.239-.05-.488-.045-.468.3.043.72.13.805.904.972l.92.197 1.186-.021c.124-.57.462-.276.748-.183.15.086.362.01.48.179.38.011.757 0 1.095.24.163.12.36-.038.545-.061.213-.026.418-.071.572.132.186.032.376.032.561 0 .198-.075.512-.16.518-.394.014-.276-.297-.209-.486-.248zm-2.147-.209a.544.544 0 010-.057h.496v.057h-.496zm.85.071a.664.664 0 01.515-.016c-.148.124-.296.06-.516.012v.004zM25.425 45.446a.233.233 0 00-.136.302c.294.939.322 1.92.427 2.886.237 2.218.424 4.437.322 6.675-.097 2.166-.115 4.333-.133 6.498-.036.497.074.993.316 1.428.184-.427 0-.738 0-1.057-.037-2.06.117-4.116.146-6.173.014-.906.05-1.814.093-2.72.128-2.339.038-4.685-.268-7.008a1.113 1.113 0 00-.374-.787.366.366 0 00-.393-.044zM26.202 64.746c-.334-.013-.306.31-.332.548-.18 1.686-.036 3.377-.103 5.064-.02.522.014 1.044-.057 1.566-.026.197-.028.524.26.545.325.024.214-.295.24-.478.244-1.85.213-3.716.302-5.575V65.32c-.006-.245.006-.56-.31-.573zM25.11 79.535a16.942 16.942 0 00-1.088-.122c-.162-.014-.334.037-.36.228-.025.191.164.173.29.207 1.042.295 2.115.467 3.196.514 1.083.026 2.098-.268 3.097-.646.148-.055.332-.126.253-.323-.079-.197-.276-.122-.415-.079-.262.087-.53.156-.801.207-1.382.22-2.79.225-4.172.014zM19.666 83.493c-.352-.063-.701-.138-1.053-.21a17.184 17.184 0 01-3.211-.623c-.197-.055-.454-.256-.555.102-.089.313.152.453.395.506 1.564.337 3.128.664 4.74.638.081-.28-.08-.366-.316-.413z" fill="#000"/><path d="M25.26 78.879c-.132-.02-.357-.106-.376.134-.016.197.213.23.347.252.513.11 1.036.158 1.56.144.905-.048 1.812-.083 2.716-.152.176-.014.494 0 .456-.305-.031-.258-.3-.18-.478-.177-1.408.023-2.808.31-4.224.104zM20.402 83.503c-.26.016-.395.128-.286.394 1.197.523 2.48.61 3.753.734.146.014.406.097.395-.171 0-.197-.233-.215-.395-.242-.809-.1-1.61-.247-2.402-.437l-.518-.091c-.177-.08-.395-.037-.547-.187zM23.223 83.433c-.697.26-1.34-.151-2.013-.155a1.244 1.244 0 00-.18-.085.214.214 0 01-.197-.075c-.047-.015-.095-.033-.144-.047-.275-.165-.456-.01-.642.136.099.177.308.14.46.213.152.073.375.021.527.145a.735.735 0 01.095.022c.123 0 .249-.028.344.087l2.245.348c.093.014.226.073.267-.059.055-.167-.113-.197-.213-.23-.251-.075-.51-.12-.91-.21l.606-.044a.227.227 0 00-.245-.046z" fill="#000"/><path d="M20.689 83.072c.05.013.097.031.144.047a.333.333 0 01-.057-.13c-.287-.093-.624-.395-.749.183a.206.206 0 00.02.036c.186-.146.367-.306.642-.136zM22.894 83.347c-.184.024-.381.182-.545.062-.338-.247-.715-.23-1.095-.241-.073 0-.15.02-.223.026.062.023.122.051.18.084.674 0 1.315.417 2.013.156a.227.227 0 01.242.046c-.154-.204-.363-.158-.572-.133zM21.13 83.587a.745.745 0 00-.095-.022s.022.01.032.02a.345.345 0 00.063.002zM23.477 82.311a.33.33 0 01.184.152c.01-.07.017-.14.027-.211a.295.295 0 01-.211.06z" fill="#000"/><path d="M23.478 82.312l-.04-.01a.128.128 0 00.04.01z" fill="#000"/><path d="M23.3 82.311l.368.16a.33.33 0 00-.183-.152.125.125 0 01-.04-.01l.04.01a.294.294 0 00.21-.059c-.141-.032-.28-.07-.394.051zM19.254 81.523v.198c.053-.073.138-.038.198-.061-.083-.012-.135-.087-.198-.137z" fill="#000"/><path d="M19.605 81.648l-.351-.125c.063.06.114.135.213.135-.069.023-.154-.012-.197.06h.332l.003-.07zM47.868 13c-.04.169.065.257.256.261a.396.396 0 00.395-.435c0-.162-.013-.358-.223-.343-.29.012-.371.272-.428.516zM47.778 13.44a.285.285 0 00-.318-.319.28.28 0 00-.314.272c-.018.253.185.243.357.257.172.014.275-.018.275-.21zM47.963 14.968a.485.485 0 00-.407.418c-.024.131.032.27.198.232.21-.06.379-.218.452-.424-.018-.175-.105-.246-.243-.226zM48.15 13.768c-.13.027-.198.11-.172.224a.394.394 0 00.36.386c.12 0 .181-.097.165-.213a.475.475 0 00-.353-.397zM47.645 11.556c0 .156.045.272.223.292a.312.312 0 00.286-.32.26.26 0 00-.245-.287c-.201-.014-.26.14-.264.315zM47.127 10.294h-.322c-.176.083-.233.209-.095.363.1.105.261.124.383.045.174-.112.24-.262.034-.408zM46.68 11.57c-.105.033-.197.092-.172.214.023.181.186.31.368.292a.164.164 0 00.183-.197c-.023-.215-.219-.237-.379-.31zM45.76 9.64c-.18.012-.217.133-.213.283.004.15.044.254.198.244.154-.01.197-.162.227-.296.03-.134-.065-.219-.212-.23z" fill="#000"/><path d="M47.13 10.294a.543.543 0 01.08-.116c.09-.077.213-.132.158-.288-.026-.069-.08-.126-.154-.108-.139.033-.28.092-.212.278.07.185-.184.104-.197.225a.273.273 0 01.326.01z" fill="#000"/><path d="M47.13 10.294a.273.273 0 00-.321 0h.322zM48.569 12.287c.112.016.167-.042.161-.144 0-.063-.017-.14-.11-.15-.093-.01-.16.071-.174.154a.126.126 0 00.123.14zM49.568 4.138l-.013-.013.013.013zM51.018 12.467c0-.02 0-.038.012-.057-.026-.04-.047-.08-.07-.119.019.06.042.119.058.176zM50.934 9.724c.028-.016.06-.026.087-.044a.357.357 0 00-.069-.028c0 .014-.016.022-.018.038-.002.016.002.024 0 .034z" fill="#000"/><path d="M55.864 7.305c-.198-.197-.16-.42-.066-.646-.043-.102-.173-.177-.104-.317l-.547-1.034-.532-.526-.638-.41-.513-.234h-.02c-.213-.102-.434-.196-.634-.315 0-.011-.02-.02-.024-.033-.132-.177-.053-.494.016-.683.151-.385.36-.744.618-1.066A6.307 6.307 0 0154.52.92l.076-.167c.092-.225.23-.443-.062-.632a.523.523 0 00-.748.086c-.306.357-.593.737-.877 1.105l-1.197 1.51a5.377 5.377 0 00-1.815-1.205l-1.367-.234c-.114.014-.211.11-.345.031-.53-.309-1.144-.394-1.703-.632l-.27-.023c-.672.039-1.26.362-1.889.55-.08.088-.096.27-.286.198l-.452.624a.445.445 0 01-.21.394l-.426 1.065c-.03.294-.138.574-.314.811a1.61 1.61 0 00-.21.76c.018.192-.015.385-.096.56 0 .059-.012.118-.02.177-.05.486.085.984-.099 1.465a.713.713 0 01-.42-.012c-.26 0-.887-.096-.948-.102-.342-.024-7.024-.359-7.024-.359-.197 0 3.818.591 3.648.684a.802.802 0 00-.24.196.124.124 0 00-.024.01c1.425.197 2.86.27 4.293.341.113 0 .227-.012.338 0 .05 0 .097-.018.146-.024.25.007.476.148.593.369a.22.22 0 01-.01.072c.46.085.61.508.902.804-.183.03-.367.048-.553.053a.282.282 0 01.227.327.335.335 0 01-.246.29h.102a6.206 6.206 0 00-1.665 3.331c-.097.652-.151 1.31-.164 1.97-.011.318-.07.468-.436.436-.488-.041-.988-.03-1.47-.027-.227 0-.27-.063-.27-.306 0-1.624.569-3.1 1.185-4.566a1.68 1.68 0 00.164-.658 4.827 4.827 0 00-.86-.021h.38c-.227.409-.43.831-.608 1.264v.018c-.502.76-.901 3.123-.92 3.879 0 .053-.017.433-.228.429-.158 0-5.747.124-7.27.08a178.74 178.74 0 00-1.777-.04c-2.406-.225-5.825-.38-9.086-.481.022.91 2.355 15.739 2.388 16.074a.294.294 0 01-.225.32.396.396 0 01-.48-.092c-.105-.114-3.938-9.164-4.199-9.723-.067-.142-.719-1.394-.902-1.914-.474-.894-1.017-1.749-1.58-2.592a.331.331 0 01-.172-.151 44.833 44.833 0 01-.375-.67c-.31-.46-.619-.923-.917-1.392-1.884-.024-3.132-.02-3.16 0-1.065-.087-2.129-.17-3.192-.252-.38-.03-1.382-.104-1.204.197.58.985 1.732 2.538 2.342 3.495 2.35 3.68 4.68 7.369 7.07 11.027 1.756 2.668 3.417 5.407 5.568 7.796.373.415.79.803 1.146 1.224.225.26.533.239.81.314 3.227.88 6.426.712 9.612-.247a2.537 2.537 0 001.631-1.291c1.408-2.808 3.255-5.36 4.74-8.13.956-1.797 2.134-3.472 3.16-5.236 1.047-1.808 2.08-3.622 3.2-5.386.31-.492.5-1.042 1.296-.788-4.531 6.77-8.353 14-12.684 20.924.144-.095.247-.258.395-.355.073-.049.152-.1.239-.063a.125.125 0 01.065.174c-.32.425-.083.943-.249 1.392a.255.255 0 01.077 0 2.14 2.14 0 01.443-.624.947.947 0 01.312-.445c-.012-.15.087-.225.197-.292l.231-.319.07-.106c.078-.11.16-.22.24-.329 0-.197.172-.28.277-.406l.152-.196a.485.485 0 01.198-.308l.432-.651c.02-.215.182-.347.296-.506l.305-.542a.859.859 0 01.23-.417c.114-.373.287-.724.512-1.042l.225-.43a.59.59 0 01.188-.41c.079-.143.156-.286.233-.428a.84.84 0 01.276-.522c.085-.136.17-.274.257-.41a.504.504 0 01.198-.315c.072-.195.185-.375.33-.525.125-.306.298-.591.511-.845.068-.203.18-.39.33-.543a.807.807 0 01.292-.503c.188-.313.375-.624.561-.937l1.975-3.668.241-.394a1.95 1.95 0 01.405-.668c0-.077 0-.153.093-.183l.197-.327c.067-.195.18-.37.332-.51a1.1 1.1 0 01.314-.458c.078-.228.214-.432.395-.591l.454-.63c.12-.272.288-.52.498-.73l.565-.857c.055-.107.11-.215.168-.321.048-.188.135-.364.255-.516.145-.405.387-.767.707-1.056.151-.155.338-.271.545-.338.332-.33.59-.725.76-1.16.061-.197.163-.38.298-.536.455-.429 1.024-.417 1.58-.468l.642-.197c.198-.197.514-.124.697-.337a.433.433 0 01.356-.177c.134-.034.136-.24.302-.23l.318-.237a.736.736 0 01.322-.283l.508-.544a.632.632 0 01.223-.329l.764-1.642a.845.845 0 01.188-.455c.02-.248.1-.488.233-.699V7.917a1.32 1.32 0 01-.136-.612zm-5.451-1.749c.224-.101.455-.187.69-.258a.429.429 0 01.198-.078c-.35.198-.727.347-1.118.445l.23-.109zM44.59 2.831c.752.48 1.44 1.052 2.052 1.701.025 0 .05-.003.075-.01l.198-.167a.164.164 0 01.087-.04l.077-.092c.015-.018.021-.057.014-.016a.14.14 0 01.053-.088.787.787 0 00-.144-.177c-.538-.528-1.083-1.044-1.612-1.576-.093-.092-.395-.18-.126-.378.075-.053.152-.145.237-.197.162.352.381.674.65.953l1.018 1.227c.06.066.145.105.234.11l-.054.054c.062.037.094.11.081.18a.546.546 0 01-.138.21c-.081.096-.166.186-.25.277-.035.036-.447.457-.542.536-.136.116-1.645-1.379-2.273-2.029-.113-.131.23-.549.363-.478zm-.893 1.626l.036.024.1.06a6.6 6.6 0 00.263.135c.429.21.867.406 1.298.612.172.083.344.164.508.26.092.054.254.142.239.27a.172.172 0 01-.17.167.184.184 0 01-.15-.092l-.034-.022c-.067-.043-.14-.08-.211-.118a22.511 22.511 0 00-1.207-.575c-.198-.09-.381-.179-.569-.276a1.81 1.81 0 01-.345-.208c-.15-.134.078-.359.242-.237zm-.707 1.334c0-.093.075-.168.168-.168.846.107 1.606.522 2.443.662.214.035.123.358-.09.323-.806-.134-1.54-.546-2.353-.648a.174.174 0 01-.168-.17zm1.873 11.29c-.545-.09-.844-.55-1.11-1.16.717.312 1.287.627 2.052.538-.285.364-.58.675-.942.622zm1.317-2.9c0 .262 0 .524-.01.788-.018.805-.472 1.17-1.272 1.006a7.177 7.177 0 01-.742-.229c-.295-.096-.575-.457-.88.061-.07.12-.529.038-.803 0-.916-.092-.944-.104-.802-1.022.223-1.38.717-2.7 1.456-3.889.052-.07.11-.136.173-.197.328.912.573 1.826 1.103 2.615.395.591.93.922 1.666.847 0-.1.01-.197.014-.301l-.624-.258.593-.325.043.358c.138.162.087.349.085.546zm-1.932-3.025v.012c.202.047.41.067.617.06l-.395.09a.089.089 0 00-.058.04l-.063.017a.105.105 0 00-.045.031 1.479 1.479 0 01-.065-.238h-.014v-.016c-.067-.169-.135-.338-.221-.563.365.103.766-.218 1.01.28-.228.142-.62-.085-.766.283v.004zm1.654 1.576a.45.45 0 00.134.258c-.33.135-.607.313-.899.346a.23.23 0 01-.134-.03c.308-.186.616-.381.898-.586v.012zm-2.1-2.505c-.128-.104-.022-.268.097-.339.318-.197.434.079.616.294-.255.104-.494.224-.713.045zm5.52 3.24c-.087.52-.099 1.033-.318 1.54-.486 1.123-1.356 1.675-2.567 1.891.099-.281.197-.52.266-.768.07-.248 0-.59.453-.394.095.044.185-.067.197-.197a.236.236 0 00-.176-.285c-.377-.051-.316-.315-.341-.573-.182-1.772-.56-3.473-1.638-4.95-.416-.57-.888-1.038-1.663-1.036-.073 0-.12-.061-.132-.209h2.064c.184 0 .466-.069.312.307-.045.107.05.197.17.215.089.012.21 0 .217-.096.026-.294.182-.24.373-.176 1.812.628 3.095 2.867 2.783 4.73zm3.376-3.64c-.091.17-2.552 3.824-2.621 3.909-.129.15-.356-.043-.267-.197a61.472 61.472 0 012.204-3.62.34.34 0 00-.197-.113c-.067-.15-.158-.264-.346-.186-.085.036-.11.077-.106.124h-.354v-.059c-.028.018-.06.028-.087.044-.028.015 0-.022 0-.032 0-.01.014-.023.018-.037a.334.334 0 00-.336.086h-.23V9.68l-.06.033v-.024c0-.008.014-.017.017-.027-.11-.04-.22.018-.331.014l-.05.053-.015.015h-.617a.988.988 0 00-.17.03c.164-.142.376-.112.593-.126.197-.197.436-.04.652-.077l.73-.104c.474-.087.933.069 1.399.079.24.007.23.175.174.281zm2.062-3.15c-.048-.026-.091-.055-.14-.077a.1.1 0 00-.135.035v.016a.07.07 0 00-.01.016.095.095 0 00-.112.067c-.118.366-.3.71-.536 1.014-.286-.242-.51-.59-.79-.825a2.175 2.175 0 00-.11-.12c-.225-.197-.476-.38-.691-.591-.054-.053-.103-.11-.155-.165-.094-.081-.197-.158-.288-.233a.235.235 0 000 .04c-.09.84-1.501 2.729-1.58 2.807-.988.394-1.491.168-2.319.134-.606-.021-1.094-.506-1.698-.624-.144-.027-.06-.165-.05-.262.15-1.508.988-2.628 2.033-3.613-.129-.268-.233-.547-.348-.821a1.894 1.894 0 01-.474-.746 3.275 3.275 0 01-.207-.686l-.065-.13a.168.168 0 01.038-.235.17.17 0 01.236.039.196.196 0 01.038.059c.466.146.91.355 1.32.62h.019a.317.317 0 01.207.07.171.171 0 01-.075.282c-.079.022-.158.05-.235.08l-.107.042-.053.022h-.02c-.125.067-.258.12-.395.16l-.017.017a.218.218 0 01-.038.046c.332.196.693.309 1.037.474.34.175.656.393.94.65a5.08 5.08 0 00-.553 1.575c-.051.06-.028.171.067.164a4.689 4.689 0 002.074-.697l.04.015c.072.033.13.092.161.166l.295.325v-.063a9.4 9.4 0 01.963.957c.295.285.572.588.83.907.014-.055.028-.11.04-.165.039-.156.06-.315.088-.475.042-.215.056-.435.042-.653 0-.109.138-.122.184-.044.446.138.738.327.9.634a1.33 1.33 0 00-.351-.206v-.002z" fill="#000"/><path d="M50.327 9.71l.061-.034a.216.216 0 00-.045-.018s-.016.016-.018.028c-.002.012.002.016.002.024zM21.903 82.581a.546.546 0 000 .057h.496a.546.546 0 000-.057h-.496zM22.754 82.705c.22.043.367.109.515-.016a.662.662 0 00-.515.016zM20.773 82.988c.125.15.322.115.48.18-.126-.17-.323-.093-.48-.18zM21.034 83.193a2.663 2.663 0 00-.198-.075.214.214 0 00.198.075z" fill="#000"/><path d="M21.03 83.193c.073 0 .15-.023.223-.025-.158-.065-.355-.03-.48-.18.01.047.03.092.058.13.067.022.134.048.2.075z" fill="#000"/><path d="M22.74 24.867a18.342 18.342 0 00.317 3.412c.26 1.681.408 3.378.442 5.079 0 .15-.047.35.198.356.197 0 .197-.187.197-.313.032-.276.045-.554.04-.831a53.445 53.445 0 00-.83-7.605c-.018-.1-.05-.197-.083-.332-.045-.018-.108-.07-.16-.06-.172.044-.118.18-.12.294zM33.287 28.967c.01-.31-.112-.61-.334-.829a.91.91 0 00-.821-.28.534.534 0 00-.34.276.198.198 0 00-.156.055.859.859 0 00-.225.828.808.808 0 00.063.155v.055c.043.133.12.252.223.345l.178.122c.097.05.202.082.31.096a.79.79 0 00.227.032l.231-.03a.88.88 0 00.386-.197l.136-.157a.709.709 0 00.118-.394v-.022a.485.485 0 00.004-.055z" fill="#fff"/><path d="M32.73 28.455a.1.1 0 00-.137-.023.098.098 0 00-.024.136c.01.011.018.025.028.039v.018a.562.562 0 01.031.08v.138a.701.701 0 01-.011.087v.065a.442.442 0 01-.08.132.096.096 0 00.014.136.1.1 0 00.137-.012.662.662 0 00.041-.796z" fill="#000"/><path d="M34.99 29.782c-.637 0-.639.985 0 .985.637 0 .635-.985 0-.985zM38.935 23.755a.099.099 0 100 .198.099.099 0 000-.198zM29.607 34.405a.099.099 0 100 .198.099.099 0 000-.198z" fill="#fff"/><path d="M33.463 32.911a.197.197 0 100 .395.197.197 0 000-.395z" fill="#000"/><path d="M33.287 28.967c.01-.31-.112-.61-.334-.829a.91.91 0 00-.821-.28.534.534 0 00-.34.276.198.198 0 00-.156.055.859.859 0 00-.225.828.808.808 0 00.063.155v.055c.043.133.12.252.223.345l.178.122c.097.05.202.082.31.096a.79.79 0 00.227.032l.231-.03a.88.88 0 00.386-.197l.136-.157a.709.709 0 00.118-.394v-.022a.485.485 0 00.004-.055z" fill="#fff"/><path d="M32.73 28.455a.1.1 0 00-.137-.023.098.098 0 00-.024.136c.01.011.018.025.028.039v.018a.562.562 0 01.031.08v.138a.701.701 0 01-.011.087v.065a.442.442 0 01-.08.132.096.096 0 00.014.136.1.1 0 00.137-.012.662.662 0 00.041-.796z" fill="#000"/></svg>