<svg width="756" height="756" viewBox="0 0 756 756" fill="none" xmlns="http://www.w3.org/2000/svg">
<path d="M730.8 682.714V554.398C730.8 554.221 730.712 554.083 730.699 553.906C730.649 552.596 730.384 551.311 729.918 550.063C729.817 549.786 729.754 549.496 729.628 549.232C729.565 549.08 729.54 548.917 729.464 548.765L679.065 447.967C676.936 443.695 672.576 440.999 667.801 440.999H554.402V327.6V239.402H579.602C586.557 239.402 592.202 233.769 592.202 226.802V201.602C592.202 180.762 575.242 163.802 554.402 163.802H541.802V151.203C541.802 134.798 531.231 120.938 516.603 115.721V77.1282C516.603 56.5274 508.576 37.1615 494.011 22.596C479.458 8.03063 460.092 0.00453186 439.479 0.00453186H417.316C396.715 0.00453186 377.349 8.03063 362.771 22.596C348.218 37.1741 340.205 56.54 340.205 77.1282V115.721C325.576 120.938 315.005 134.798 315.005 151.203V163.802H302.405C281.565 163.802 264.606 180.762 264.606 201.602V226.802C264.606 233.769 270.25 239.402 277.206 239.402H302.405V327.6V452.931L289.213 578.287L278.251 682.399C264.593 686.822 254.412 698.729 252.497 713.332C251.212 712.198 249.851 710.862 248.289 709.3C241.409 702.408 231.985 692.996 214.156 692.996C196.327 692.996 186.903 702.408 180.036 709.275C173.837 715.461 170.8 718.196 163.694 718.196C156.613 718.196 153.589 715.461 147.415 709.287C140.548 702.408 131.136 692.996 113.319 692.996C95.5033 692.996 86.0912 702.408 79.2243 709.287C73.0504 715.461 70.039 718.196 62.9705 718.196C55.902 718.196 52.878 715.461 46.7041 709.287C39.8246 702.408 30.4251 692.996 12.6089 692.996C5.65382 692.996 0.00909424 698.628 0.00909424 705.596C0.00909424 712.563 5.65382 718.196 12.6089 718.196C19.6774 718.196 22.7014 720.93 28.8753 727.104C35.7422 733.983 45.1543 743.395 62.9705 743.395C80.7867 743.395 90.1862 733.983 97.0657 727.104C103.24 720.93 106.264 718.196 113.332 718.196C120.413 718.196 123.437 720.93 129.611 727.104C136.478 733.983 145.877 743.395 163.694 743.395C181.522 743.395 190.947 733.983 197.827 727.104C204.013 720.93 207.05 718.196 214.156 718.196C221.262 718.196 224.299 720.93 230.485 727.116C235.525 732.144 241.951 738.494 252.006 741.568V743.395C252.006 750.363 257.651 755.995 264.606 755.995H743.4C750.355 755.995 756 750.363 756 743.395V718.196C756 701.791 745.428 687.931 730.8 682.714ZM642.601 592.197C621.761 592.197 604.801 609.156 604.801 629.997V680.396H578.506L568.199 566.997H705.6V680.396H680.401V629.997C680.401 609.156 663.441 592.197 642.601 592.197ZM655.201 629.997V680.396H630.001V629.997C630.001 623.042 635.658 617.397 642.601 617.397C649.544 617.397 655.201 623.042 655.201 629.997ZM660.014 466.199L697.813 541.798H565.528L556.078 466.199H660.014ZM365.404 77.1282C365.404 63.2557 370.81 50.2275 380.625 40.4122C390.415 30.6095 403.456 25.2042 417.328 25.2042H439.492C453.364 25.2042 466.405 30.6095 476.207 40.4122C485.998 50.2275 491.403 63.2683 491.403 77.1282V113.403H441.004V88.2034C441.004 81.2357 435.359 75.6036 428.404 75.6036C421.449 75.6036 415.804 81.2357 415.804 88.2034V113.403H365.404V77.1282V77.1282ZM340.205 151.203C340.205 144.248 345.862 138.603 352.805 138.603H504.003C510.945 138.603 516.603 144.248 516.603 151.203V163.802H340.205V151.203V151.203ZM289.805 214.202V201.602C289.805 194.647 295.463 189.002 302.405 189.002H327.605H529.202H554.402C561.345 189.002 567.002 194.647 567.002 201.602V214.202H541.802H315.005H289.805ZM471.798 592.197H543.73L553.016 680.396H478.803V617.397C478.803 608.174 476.132 599.644 471.798 592.197ZM315.736 566.997L326.345 466.199H530.462L541.071 566.997H315.736ZM453.603 617.397V680.396H403.204V617.397C403.204 603.499 414.506 592.197 428.404 592.197C442.301 592.197 453.603 603.499 453.603 617.397ZM385.01 592.197C380.675 599.644 378.004 608.174 378.004 617.397V680.396H303.804L313.09 592.197H385.01ZM529.202 340.2V440.999H327.605V340.2H529.202ZM327.605 315.001V239.402H529.202V315.001H327.605ZM730.8 730.795H277.206V718.196C277.206 711.24 282.863 705.596 289.805 705.596H390.604H466.203H567.002H617.401H667.801H718.2C725.143 705.596 730.8 711.24 730.8 718.196V730.795Z" fill="white"/>
<path d="M428.404 491.398C421.449 491.398 415.804 497.031 415.804 503.998V529.198C415.804 536.166 421.449 541.798 428.404 541.798C435.359 541.798 441.004 536.166 441.004 529.198V503.998C441.004 497.031 435.359 491.398 428.404 491.398Z" fill="white"/>
<path d="M428.404 415.799C435.359 415.799 441.004 410.167 441.004 403.2V378C441.004 371.032 435.359 365.4 428.404 365.4C421.449 365.4 415.804 371.032 415.804 378V403.2C415.804 410.167 421.449 415.799 428.404 415.799Z" fill="white"/>
<path d="M428.404 252.002C421.449 252.002 415.804 257.634 415.804 264.601V289.801C415.804 296.769 421.449 302.401 428.404 302.401C435.359 302.401 441.004 296.769 441.004 289.801V264.601C441.004 257.634 435.359 252.002 428.404 252.002Z" fill="white"/>
<path d="M7.92213 36.9097L259.919 137.708C261.456 138.326 263.044 138.603 264.606 138.603C269.608 138.603 274.333 135.617 276.311 130.678C278.894 124.214 275.757 116.881 269.293 114.298L17.2964 13.4991C10.7823 10.9036 3.48699 14.0535 0.904021 20.5299C-1.67895 26.9936 1.45841 34.3267 7.92213 36.9097Z" fill="white"/>
<path d="M12.6093 390.6C14.1717 390.6 15.7466 390.323 17.2838 389.705L269.281 288.906C275.744 286.323 278.882 278.99 276.299 272.527C273.716 266.05 266.395 262.913 259.919 265.496L7.92213 366.295C1.45841 368.878 -1.67895 376.211 0.904021 382.674C2.8822 387.614 7.61974 390.6 12.6093 390.6Z" fill="white"/>
<rect y="673" width="254" height="83" fill="black"/>
</svg>
