<?xml version="1.0" encoding="iso-8859-1"?>
<!-- Generator: Adobe Illustrator 19.0.0, SVG Export Plug-In . SVG Version: 6.00 Build 0)  -->
<svg version="1.1" id="Layer_1" xmlns="http://www.w3.org/2000/svg" xmlns:xlink="http://www.w3.org/1999/xlink" x="0px" y="0px"
	 viewBox="0 0 255.24 255.24" style="enable-background:new 0 0 255.24 255.24;" xml:space="preserve">
<g>
	<g>
		<g>
			<path d="M98.052,203.602c0.172,0,0.272-0.012,0.284-0.012l31.812-0.324l-0.876-0.94c-0.728-0.78-17.828-19.16-21.092-22.252
				c-0.912-0.86-2.048-1.204-3.316-0.984c-3.152,0.548-6.72,4.528-8.472,7.992c-2.212,4.368-2.416,6.088-3.04,11.204
				c-0.208,1.692,0.144,3.02,1.044,3.952C95.584,203.47,97.36,203.602,98.052,203.602z M94.476,198.41
				c0.62-5.092,0.808-6.628,2.924-10.816c1.656-3.268,4.972-6.924,7.66-7.392c0.188-0.032,0.372-0.052,0.548-0.052
				c0.684,0,1.272,0.248,1.792,0.74c2.82,2.676,16.552,17.384,20.172,21.264l-29.284,0.3c-0.02-0.004-1.968,0.14-3.08-1.012
				C94.564,200.766,94.316,199.746,94.476,198.41z"/>
			<path d="M130.168,166.854c-2.616-1.832-7.908-1.556-11.556-0.36c-4.616,1.512-5.964,2.584-9.976,5.76
				c-1.32,1.048-2,2.236-2.024,3.528c-0.044,2.156,1.792,3.752,1.84,3.788l22.764,22.476l0.04-1.304
				c0.032-1.072,0.756-26.292,0.604-30.812C131.82,168.662,131.236,167.598,130.168,166.854z M130.16,199.406l-20.94-20.668
				c-0.012-0.016-1.504-1.308-1.472-2.932c0.016-0.94,0.556-1.836,1.592-2.66c3.996-3.168,5.204-4.124,9.624-5.576
				c1.724-0.564,3.804-0.904,5.744-0.904c1.92,0,3.696,0.336,4.812,1.112c0.78,0.548,1.18,1.26,1.212,2.188
				C130.86,173.87,130.312,194.054,130.16,199.406z"/>
			<path d="M132.828,201.938l0.94-0.9c0.772-0.736,18.928-18.052,21.988-21.356c0.864-0.932,1.188-2.068,0.956-3.364
				c-0.56-3.172-4.496-6.76-7.916-8.528c-4.32-2.228-6.028-2.432-11.088-3.056c-1.704-0.22-2.968,0.144-3.892,1.036
				c-1.556,1.492-1.372,3.944-1.364,4.012L132.828,201.938z M134.608,166.586c0.536-0.512,1.28-0.768,2.228-0.768
				c0.236,0,0.48,0.016,0.736,0.048c5.048,0.616,6.572,0.804,10.712,2.936c3.228,1.664,6.844,5.008,7.324,7.72
				c0.164,0.94-0.06,1.724-0.68,2.396c-2.632,2.852-17.132,16.72-20.992,20.408l-0.344-29.588
				C133.584,169.71,133.444,167.706,134.608,166.586z"/>
			<path d="M156.272,180.022l-22.228,22.992l1.284,0.04c0.956,0.028,21.468,0.632,28.684,0.632c0.76,0,1.38-0.008,1.804-0.024
				c1.24-0.044,2.28-0.616,3.016-1.66c1.852-2.628,1.584-8,0.392-11.72c-1.492-4.656-2.556-6.024-5.7-10.084
				c-1.04-1.336-2.216-2.024-3.496-2.048c-0.024,0-0.048,0-0.068,0C157.856,178.154,156.308,179.974,156.272,180.022z
				 M159.96,179.286c0.016,0,0.032,0,0.048,0c0.924,0.016,1.808,0.56,2.62,1.608c3.136,4.048,4.084,5.264,5.52,9.732
				c1.124,3.508,1.344,8.476-0.24,10.724c-0.54,0.76-1.236,1.148-2.128,1.18c-3.852,0.14-23.844-0.42-29.132-0.576l20.464-21.176
				C157.128,180.762,158.38,179.286,159.96,179.286z"/>
			<path d="M169.904,205.618c-1.48-1.536-3.884-1.344-3.944-1.348l-31.808,0.38l0.876,0.936c0.728,0.78,17.864,19.132,21.128,22.224
				c0.732,0.688,1.612,1.044,2.584,1.044c0.244,0,0.488-0.024,0.74-0.068c3.148-0.552,6.712-4.536,8.464-8.008
				c2.204-4.376,2.408-6.092,3.02-11.204C171.16,207.882,170.804,206.55,169.904,205.618z M169.836,209.442
				c-0.612,5.096-0.796,6.628-2.912,10.828c-1.648,3.264-4.96,6.928-7.644,7.4c-0.916,0.164-1.688-0.064-2.344-0.688
				c-2.824-2.664-16.58-17.352-20.204-21.232l29.28-0.348c0.028,0,1.956-0.156,3.076,1.004
				C169.744,207.082,169.996,208.102,169.836,209.442z"/>
			<path d="M155.844,228.346L133.08,205.87l-0.04,1.304c-0.032,1.072-0.756,26.292-0.604,30.812
				c0.044,1.264,0.624,2.332,1.692,3.076c1.328,0.932,3.348,1.32,5.488,1.32c2.08,0,4.272-0.368,6.072-0.952
				c4.608-1.516,5.964-2.584,9.98-5.764c1.32-1.048,2-2.236,2.024-3.528C157.728,229.978,155.892,228.382,155.844,228.346z
				 M154.964,234.77c-4.004,3.168-5.212,4.124-9.628,5.58c-3.428,1.124-8.32,1.352-10.56-0.22c-0.78-0.548-1.176-1.256-1.208-2.184
				c-0.128-3.904,0.416-24.084,0.572-29.436l20.94,20.668c0.012,0.016,1.504,1.308,1.476,2.936
				C156.536,233.05,156,233.946,154.964,234.77z"/>
			<path d="M131.468,205.974l-0.94,0.9c-0.772,0.736-18.924,18.056-21.984,21.356c-0.864,0.936-1.188,2.072-0.96,3.368
				c0.56,3.172,4.496,6.76,7.916,8.528c4.32,2.228,6.028,2.432,11.088,3.056c0.304,0.04,0.596,0.056,0.88,0.056
				c1.248,0,2.252-0.364,3.008-1.084c1.556-1.496,1.376-3.952,1.368-4.02L131.468,205.974z M129.688,241.33
				c-0.664,0.636-1.66,0.88-2.956,0.724c-5.048-0.616-6.572-0.804-10.712-2.936c-3.228-1.664-6.844-5.004-7.32-7.716
				c-0.164-0.944,0.056-1.728,0.68-2.4c2.632-2.852,17.128-16.724,20.988-20.412l0.344,29.588
				C130.716,238.202,130.856,240.21,129.688,241.33z"/>
			<path d="M108.028,227.894l22.228-22.992l-1.284-0.04c-1.064-0.032-26.04-0.784-30.488-0.608c-1.24,0.044-2.28,0.612-3.016,1.656
				c-1.852,2.628-1.584,8.004-0.396,11.724c1.496,4.656,2.56,6.024,5.704,10.084c1.04,1.332,2.216,2.024,3.496,2.048
				c0.024,0,0.048,0,0.068,0C106.444,229.762,107.988,227.942,108.028,227.894z M104.34,228.63c-0.016,0-0.032-0.004-0.048-0.004
				c-0.924-0.016-1.808-0.556-2.62-1.604c-3.136-4.048-4.084-5.264-5.524-9.732c-1.12-3.508-1.336-8.48,0.244-10.724
				c0.54-0.764,1.236-1.148,2.128-1.18c0.404-0.012,0.976-0.02,1.696-0.02c6.168,0,22.7,0.456,27.436,0.592l-20.464,21.176
				C107.176,227.154,105.92,228.63,104.34,228.63z"/>
			<path d="M253.852,217.962c-0.38-0.092-6.896-1.684-14.412-0.316c5.112-11.62,5.36-22.528,5.304-25.32
				c1.432-2.268,4.54-7.688,3.612-10.804c-0.916-3.12-6.468-5.98-8.912-7.1c-2.712-4.38-21.016-31.568-54.668-26.36
				c-2.796,0.428-5.484,1-8.124,1.624c0.26-2.692,0.46-5.4,0.46-8.164c0-6.252-0.736-12.7-2.104-19.192
				c0.064-0.38,0.108-0.76,0.108-1.148c0-8.484-15.564-14.596-36.708-18.116L190.564,7.21l0.512-0.944l-11-5.772l-54.84,100.796
				c-10.488-1.132-21.708-1.724-32.76-1.724c-2.724,0-5.46,0.052-8.192,0.124c-0.292-3.584-2.148-7.276-5.556-10.6
				c-3.484-3.404-7.5-5.264-11.332-5.264c-0.068,0-0.132,0-0.196,0c-0.132,0.004-0.256,0.04-0.384,0.048l-2.44-6.764l58.548-17.268
				l-70.54-18.424l-4.752-13.88l-6.34,1.864l4.776,13.948L0,96.09l58.396-17.224l2.524,6.996c-0.828,0.552-1.632,1.18-2.372,1.952
				c-3.712,3.876-5.048,9.196-4.032,14.092c-22.74,2.928-40.92,8.576-44.128,16.696l-0.36-0.12l-0.192,2.552
				c-0.352,4.688-0.244,8.916-0.124,13.396c0.06,2.276,0.12,4.612,0.12,7.092c0,47.088,34.888,85.6,78.708,88.328
				c8.864,14.876,25.068,24.896,43.608,24.896c7.2,0,14.04-1.528,20.252-4.24c5.56,1.66,12.304,2.716,19.968,2.716
				c11.992,0,25.992-2.484,40.2-8.76c1.968,0.836,3.312,1.228,3.488,1.276l1.536,0.42l0.208-1.336
				c1.448,0.248,3.696,0.536,6.412,0.536c4.712,0,10.76-0.872,16.172-4.34c10.584-6.78,14.336-20.732,14.492-21.32l0.364-1.384
				L253.852,217.962z M244.784,219.978c2.5-0.064,4.644,0.128,6.148,0.336l-6.316,4.048L244.784,219.978z M240.392,220.386
				c1.12-0.184,2.204-0.296,3.256-0.356l-0.196,5.08l-3.324,2.132L240.392,220.386z M173.116,141.522c0,3.152-0.26,6.228-0.608,9.28
				c-6.844,1.92-13.108,4.412-18.708,7.284c-2.612-1.24-5.34-2.26-8.172-3.04c0.404-3.576,0.68-7.192,0.68-10.876
				c0-2.38-0.036-4.192-0.188-6.316c11.844-2.524,21.172-5.988,25.8-10.344C172.696,132.25,173.116,136.942,173.116,141.522z
				 M181.616,3.726l5.876,3.084l-63.468,116.644c0.92,0.328,1.84,0.656,2.76,0.984l3.14-5.772
				c9.988,1.196,18.304,2.844,23.764,4.824c-10.964,2.304-31.304,4.468-60.512,4.468c-30.832,0-51.836-2.408-62.304-4.836
				c8.684-2.912,23.276-5.04,40.448-5.992l1.744,5.1l0.2,0.58l0.604,0.096c0.296,0.048,0.588,0.084,0.884,0.112
				c0.308,0.032,0.612,0.068,0.916,0.12c1.096,0.2,2.184,0.428,3.26,0.688l1.804,0.428l-2.548-7.448
				c4.404-0.16,8.924-0.252,13.54-0.252c8.604,0,16.944,0.316,24.736,0.864l-1.416,2.6c0.896,0.38,1.796,0.74,2.7,1.096
				L181.616,3.726z M133.4,112.274c18.104,2.224,29.144,5.544,29.756,7.684c-0.304,0.892-2.828,2-7.488,3.1
				c-5.456-2.292-14.26-4.172-25.148-5.496L133.4,112.274z M28.94,122.626c-3.556-0.952-5.524-1.884-5.748-2.648
				c0.52-2.444,14.692-6.468,37.596-8.596c2.548,1.788,5.548,2.78,8.712,2.78c0.084,0,0.172,0,0.256,0
				c0.18-0.004,0.352-0.052,0.532-0.06l0.656,1.916C52.72,117.05,37.416,119.406,28.94,122.626z M77.62,121.434
				c-0.524-0.108-1.052-0.212-1.58-0.308h-0.004c-0.352-0.064-0.704-0.104-1.056-0.14l-0.188-0.024l-2.432-7.104
				c0.832-0.156,1.636-0.404,2.424-0.696L77.62,121.434z M76.656,112.326c1.084-0.572,2.092-1.276,3.032-2.108
				c4.196-0.156,8.508-0.268,13.076-0.268c9.912,0,19.02,0.388,27.212,1.008l-2.904,5.34c-7.916-0.56-16.448-0.88-25.344-0.88
				c-4.748,0-9.396,0.096-13.92,0.264L76.656,112.326z M83.876,103.718c2.82-0.08,5.652-0.156,8.604-0.156
				c11.144,0,21.452,0.548,30.716,1.48l-1.76,3.236c-9.272-0.744-19.104-1.168-28.672-1.168c-3.48,0-6.98,0.092-10.472,0.196
				C83.044,106.166,83.54,104.958,83.876,103.718z M72.68,87.486c1.532,0.776,3.044,1.84,4.464,3.228
				c1.056,1.028,2,2.192,2.792,3.436C77.292,96.974,70.444,91.362,72.68,87.486z M43.912,30.754l2.416-0.716l3.68,10.752
				l-1.404-0.368l-0.996,1.14L43.912,30.754z M33.528,83.246l13.048-23.532c0.152-0.272,0.052-0.616-0.224-0.768
				c-0.276-0.152-0.616-0.056-0.768,0.224l-13.14,23.696c-0.128,0.228-0.044,0.488,0.136,0.66L8.548,90.614l41.044-47l62.744,16.388
				L88.52,67.026L67.872,55.354c-0.268-0.16-0.62-0.068-0.768,0.216c-0.156,0.268-0.06,0.616,0.216,0.768l19.692,11.136l-23.6,6.96
				l-0.016-0.044c-0.004,0.02-0.028,0.036-0.032,0.056l-1.58,0.468c-0.004-0.04,0.02-0.072,0.004-0.112l-6.14-17.352
				c-0.104-0.3-0.428-0.44-0.724-0.348c-0.296,0.104-0.452,0.428-0.348,0.724l6.14,17.352c0.008,0.02,0.04,0.016,0.048,0.036
				L33.528,83.246z M60.248,78.322l2.28-0.672l2.332,6.456c-0.768,0.176-1.52,0.432-2.248,0.764L60.248,78.322z M60.192,89.382
				c2.048-2.14,4.416-3.248,7.044-3.292c0.056,0,0.108,0,0.164,0c1.392,0,2.824,0.36,4.252,0.944c-2.58,4.8,5.228,11.56,8.88,8.164
				c2.104,3.92,2.424,8.508-1.5,12.608c-2.468,2.58-5.772,4.028-9.308,4.084c-0.076,0.004-0.148,0.004-0.224,0.004
				c-3.408,0-6.62-1.308-9.072-3.704C55.224,103.114,55.12,94.678,60.192,89.382z M55.924,105.726
				c0.552,1.088,1.24,2.112,2.06,3.068c-21.22,2.112-37.628,6.088-37.628,11.172c0,8.568,47.632,10.828,72.82,10.828
				c25.188,0,72.82-2.26,72.82-10.828c0-4.428-13.26-8.06-31.164-10.32l1.568-2.88c21.52,3.432,34.716,9.108,34.716,14.42
				c0,8.332-32.296,17.612-78.64,17.612s-78.64-9.28-78.64-17.612C13.836,115.29,30.076,108.95,55.924,105.726z M144.04,144.17
				c0,3.488-0.256,6.912-0.624,10.304c-3.628-0.824-7.388-1.3-11.26-1.3c-17.988,0-33.784,9.428-42.808,23.58l0.356-33.976
				c0.924,0.008,1.852,0.016,2.776,0.016c17.988,0,36.472-1.532,51.396-4.484C144.004,140.23,144.04,141.918,144.04,144.17z
				 M13.836,141.522c0-2.52-0.064-4.888-0.12-7.2c-0.056-2.108-0.052-4.164-0.044-6.232c3.556,3.012,9.412,5.576,16.78,7.684
				c-0.36,3.424-0.372,4.956-0.372,8.396c0,34.528,17.892,65.228,44.876,79.472C39.96,214.754,13.836,181.378,13.836,141.522z
				 M84.296,225.35c-30.82-11.508-51.952-44.072-51.952-81.18c0-3.352,0.028-4.8,0.328-7.784
				c14.744,3.884,34.824,6.052,54.764,6.364l-0.4,38c-3.596,6.964-5.664,14.844-5.664,23.208c0,7.736,1.788,15.044,4.896,21.612
				C85.608,225.506,84.952,225.43,84.296,225.35z M132.152,250.774c-25.812,0-46.812-21-46.812-46.816
				c0-25.816,21-46.816,46.812-46.816c25.816,0,46.816,21,46.816,46.816C178.968,229.774,157.968,250.774,132.152,250.774z
				 M203.528,235.562l7.8,0.492l3.312,6.164C212.128,241.226,207.804,239.19,203.528,235.562z M195.616,206.798l2.844,5.292
				l-7.072-0.864c-0.216-1.756-0.36-3.452-0.424-5.044L195.616,206.798z M190.916,205.03c-0.06-2.672,0.04-4.976,0.164-6.676
				l3.872,7.212L190.916,205.03z M199.116,213.314l3.38,6.292l-9.536-0.604c-0.644-2.224-1.116-4.444-1.428-6.616L199.116,213.314z
				 M203.128,220.782l3.612,6.724l-10.84-1.196c-0.052-0.092-0.112-0.168-0.164-0.26c-1.012-1.888-1.768-3.876-2.412-5.888
				L203.128,220.782z M207.388,228.714l3.312,6.164l-8.476-0.536c-2.012-1.884-3.916-4.144-5.552-6.812L207.388,228.714z
				 M215.336,241.118l-23.552-43.852c4.204,1.66,13.596,6.284,18.908,16.176C215.984,223.286,215.768,235.582,215.336,241.118z
				 M213.192,212.106c-7.508-13.972-22.204-18.172-22.824-18.344l-1.536-0.42l-0.248,1.572c-0.116,0.752-2.792,18.628,4.648,32.488
				c3.936,7.324,9.836,11.944,14.66,14.724c-19.464,7.848-37.66,8.248-50.156,5.632c15.048-8.824,25.204-25.128,25.204-43.8
				c0-18.52-9.996-34.704-24.84-43.58c7.824-3.732,16.912-6.8,27.284-8.396c2.756-0.424,5.4-0.616,7.928-0.616
				c28.308,0,42.392,24.444,43.028,25.58l0.324,0.584l0.608,0.264c3.516,1.548,6.988,3.86,7.28,4.856
				c0.292,0.992-1.36,4.82-3.472,8.036l-0.364,0.56l0.044,0.66c0.016,0.216,0.66,13.664-6.376,27.14
				c-1.628,0.612-3.252,1.376-4.824,2.384c-5.312,3.404-8.904,8.616-11.184,13.04C218.24,228.002,217.156,219.494,213.192,212.106z
				 M239.248,220.614l-0.284,7.372l-3.672,2.356l-0.056-8.552C236.576,221.282,237.92,220.886,239.248,220.614z M234.164,231.066
				l-4.74,3.04l0.272-9.244c0.464-0.352,0.9-0.736,1.392-1.052c0.98-0.628,1.992-1.152,3.016-1.604L234.164,231.066z
				 M228.536,225.734l-0.268,9.112l-3.868,2.48l-0.048-7.044C225.56,228.67,226.936,227.11,228.536,225.734z M223.228,231.882
				l0.044,6.168l-4.652,2.984C219.436,238.806,220.908,235.374,223.228,231.882z M238.852,238.634
				c-7.176,4.6-15.856,4.068-19.84,3.488l32.32-20.72C249.832,225.538,246.036,234.03,238.852,238.634z"/>
			<path d="M61.5,92.21c0.988-1.92,2.676-3.104,4.844-3.264c0.724-0.052,0.728-1.188,0-1.132c-2.556,0.188-4.644,1.54-5.824,3.824
				C60.184,92.286,61.164,92.862,61.5,92.21z"/>
			<path d="M60.764,93.834c0.052-0.152,0.108-0.304,0.16-0.456c0.244-0.688-0.852-0.984-1.092-0.3
				c-0.052,0.152-0.108,0.304-0.16,0.456C59.428,94.222,60.52,94.518,60.764,93.834z"/>
			<path d="M132.152,159.83c-24.332,0-44.128,19.796-44.128,44.128c0,24.332,19.796,44.128,44.128,44.128
				c24.332,0,44.128-19.796,44.128-44.128C176.28,179.626,156.484,159.83,132.152,159.83z M132.152,246.954
				c-23.708,0-42.996-19.288-42.996-42.996s19.288-42.996,42.996-42.996s42.996,19.288,42.996,42.996
				S155.86,246.954,132.152,246.954z"/>
			<path d="M187.292,155.99c-0.084,0.084-0.168,0.168-0.256,0.256c-1.824,1.82,1.004,4.652,2.828,2.828
				c0.084-0.084,0.168-0.168,0.256-0.256C191.944,156.994,189.116,154.166,187.292,155.99z"/>
			<path d="M195.292,171.99c-0.084,0.084-0.168,0.168-0.256,0.256c-1.824,1.82,1.004,4.652,2.828,2.828
				c0.084-0.084,0.168-0.168,0.256-0.256C199.944,172.994,197.116,170.166,195.292,171.99z"/>
			<path d="M203.292,163.99c-0.084,0.084-0.168,0.168-0.256,0.256c-1.824,1.82,1.004,4.652,2.828,2.828
				c0.084-0.084,0.168-0.168,0.256-0.256C207.944,164.994,205.116,162.166,203.292,163.99z"/>
		</g>
	</g>
</g>
<g>
</g>
<g>
</g>
<g>
</g>
<g>
</g>
<g>
</g>
<g>
</g>
<g>
</g>
<g>
</g>
<g>
</g>
<g>
</g>
<g>
</g>
<g>
</g>
<g>
</g>
<g>
</g>
<g>
</g>
</svg>
