<svg width="293" height="293" viewBox="0 0 293 293" fill="none" xmlns="http://www.w3.org/2000/svg">
<path d="M153.699 292.138C68.95 292.138 0 223.185 0 138.439C0 79.742 32.675 27.002 85.28 0.807003C87.649 -0.366997 90.495 0.0890032 92.357 1.951C94.221 3.815 94.702 6.662 93.54 9.025C83.941 28.527 79.077 49.496 79.077 71.33C79.077 149.302 142.509 212.737 220.472 212.737C242.552 212.737 263.719 207.759 283.414 197.96C285.78 196.783 288.627 197.239 290.488 199.101C292.361 200.968 292.83 203.815 291.665 206.174C265.61 259.195 212.738 292.138 153.699 292.138Z" fill="#1A1919"/>
</svg>
