<?xml version="1.0" encoding="iso-8859-1"?>
<!-- Generator: Adobe Illustrator 19.0.0, SVG Export Plug-In . SVG Version: 6.00 Build 0)  -->
<svg version="1.1" id="Layer_1" xmlns="http://www.w3.org/2000/svg" xmlns:xlink="http://www.w3.org/1999/xlink" x="0px" y="0px"
	 viewBox="0 0 293.404 293.404" style="enable-background:new 0 0 293.404 293.404;" xml:space="preserve">
<g>
	<g>
		<g>
			<path d="M247.398,287.108c-0.176-0.552-4.452-13.58-17.24-19.748c-2.616-1.26-5.368-2.116-8.092-2.696
				c13.584-9.204,20.532-27.42,20.828-28.204l0.524-1.408l-1.436-0.444c-0.648-0.192-16.04-4.776-30.252,4.364
				c-1.76,1.132-3.38,2.444-4.92,3.832c-2.38-0.74-5.604-1.676-6.552-1.868l-3.748-0.372h-0.436l-3.024,0.18l-0.096-0.564
				c-0.116-0.368-0.192-0.712-0.268-1.044c-0.168-0.752-0.364-1.596-0.892-2.6c-2-3.996-7.508-11.676-8.528-12.88l-0.448-0.864
				c-0.296-0.556-0.596-1.108-0.792-1.696c-0.828-2.48-2.696-2.404-3.728-2.14l-0.368,0.092l-0.792,0.776l-1.044,2.616
				c-0.256,0.376-1.028,1.232-1.6,1.88l-0.716,0.82c-0.784,0.96-2.692,3.344-3.38,4.612c-1.704,2.54-3.936,8.836-4.672,10.996
				l-3.764-0.176c-0.116,0.008-0.816,0.088-1.612,0.184c18.116-34,30.64-98.256,30.64-125.784c0-1.128-0.06-2.236-0.116-3.344
				c0.204-0.752,0.328-1.516,0.328-2.292c0-6.5-7.388-12.056-19.216-15.708l10.3-18.416l55.676,28.064L201.13,41.52l7.4-13.232
				l-6.02-3.032l-7.368,13.176l-74.644,5.64l55.772,28.112l-11.008,19.68c-7.988-1.752-17.352-2.78-27.636-2.78
				c-6.152,0-12.372,0.416-18.332,1.164L107.534,0L95.946,1.508l11.816,90.72c-14.376,3.272-25.048,9.044-25.048,17.116
				c0,0.824,0.112,1.624,0.324,2.396c-0.044,1.08-0.112,2.148-0.112,3.24c0,6.044,0.608,13.876,1.74,22.76
				c-5.776-6.724-13.404-12.124-22.6-10.988c-11.524,1.428-17.312,11.856-16.452,22.808c0.948,12.064,9.048,21.268,17.712,28.872
				c11.784,10.348,24.172,20.072,36.84,29.316c7.624,23.848,17.292,44.348,28.032,51.912c-0.228,2.68-0.416,4.456-0.52,4.952
				c-0.94,2.78-3.348,3.412-7.528,4.288c-1.552,0.328-3.16,0.664-4.792,1.2c-9.576,1.68-14.228,4.192-14.228,7.676
				c0,7.376,22.52,9.34,35.828,9.34c5.184,0,11.744-0.324,17.848-1.128l0.02,1.52l-0.728,2.624l0.032,1.488l1.664,1.712h1.728
				l1.692-1.14l0.172-0.108l2.304-0.948l0.516-0.184l2.592-0.644c0.704-0.172,2.548-0.636,2.796-0.708
				c0.392-0.12,2.536-0.852,2.78-1.004l1.764-0.752l4.488-2.524l2.156-1.616l0.528-0.524l3.776,2.86l1.988,1.1
				c1.524,0.684,8.288,3.06,9.536,3.38l1.252,0.304c1.988,0.408,3.316,1.032,4.296,2.016l0.36,0.36l2.084,0.204l1.944-2.268
				l-0.168-1.3l-0.224-0.596c-0.456-0.688-0.48-1.568-0.46-2.596l0.416-7.572l-0.16-2.76l-0.452-2.592
				c2.668,4.18,6.98,9.184,13.588,12.372c6.184,2.98,13.136,3.76,18.712,3.76c5.848,0,10.184-0.856,10.528-0.928l1.548-0.316
				L247.398,287.108z M219.85,262.768c-0.04,0.024-0.1,0.068-0.144,0.096l-9.02-4.556l2.204-3.012l0.248-0.352l0.012-0.016
				l2.928-1.884l9.26,5.26C223.634,259.94,221.834,261.488,219.85,262.768z M218.65,263.6c-0.2,0.14-0.392,0.272-0.584,0.408
				c-4.744-0.576-9.084-0.424-12.244-0.132l2.52-2.36l1.668-2.276L218.65,263.6z M226.186,257.484l-9.032-5.132l6.508-4.188
				l7.42,3.632C229.622,253.756,227.982,255.668,226.186,257.484z M231.75,250.86l-6.976-3.416l5.36-3.448l4.74,2.136
				C233.958,247.664,232.906,249.248,231.75,250.86z M235.478,245.156l-4.204-1.892l7.76-4.996
				C238.238,240.02,237.082,242.4,235.478,245.156z M213.266,241.356c10.252-6.596,21.42-5.36,25.86-4.492l-24.26,15.616l0.98-1.404
				l1.34-0.868l1.1-1.196l0.036-0.464c0.056-0.74,0.036-1.68-0.636-2.42c-0.712-0.78-1.788-0.904-2.816-0.92l-0.632,0.012
				c-1.032-0.304-3.156-0.992-4.292-1.372C211.014,242.96,212.102,242.104,213.266,241.356z M178.61,174.412
				c-6.128,6.12-22.736,10.648-41.72,10.648c-20.328,0-37.372-5.176-41.904-12.108c-2.1-9.46-3.8-18.628-5.092-27.028
				c7.192,6.704,24.916,11.224,46.776,11.224c21.456,0,39.44-4.372,47.288-10.764C182.614,155.092,180.822,164.612,178.61,174.412z
				 M93.87,185.564c-7.9-4.38-22.536-14.1-28.368-21.208c-4.304-5.244-6.648-9.564-7.364-13.596
				c-0.588-3.3,0.752-8.056,4.392-10.372c3.54-2.256,8.376-1.46,13.608,2.232c1.968,1.388,7.916,6.564,11.272,12.848
				C89.126,165.132,91.302,175.376,93.87,185.564z M187.334,117.144c-0.072,0.372-0.184,0.72-0.212,1.108
				c-0.02,0.316-0.104,0.588-0.228,0.828c-0.252,6.316-1.06,14.412-2.376,23.536c-4.936,6.412-22.9,12.26-47.848,12.26
				c-26.856,0-44.392-6.716-47.46-13.62c-1.24-8.852-1.992-16.676-2.208-22.768c0.152,0.084,0.344,0.16,0.496,0.244
				c-0.032-0.052-0.076-0.08-0.104-0.14c-0.18-0.38-0.308-0.78-0.484-1.164c8.808,7.94,30.228,12.16,50.716,12.16
				C160.758,129.588,179.558,124.588,187.334,117.144z M187.206,109.332c0,0.152-0.056,0.308-0.072,0.46
				c-3.34-4.016-9.912-7.388-18.74-9.736l1.604-2.864C180.79,100.364,187.206,104.916,187.206,109.332z M203.346,27.952l2.372,1.192
				l-5.788,10.344l-0.816-1.368l-1.524,0.116L203.346,27.952z M155.218,58.384l22.052-7.664c0.296-0.1,0.452-0.424,0.348-0.72
				c-0.104-0.3-0.436-0.456-0.72-0.348l-23.092,8.024l-22.924-11.552l66.692-5.04l32.964,55.272l-23.168-11.68
				c0.24-0.128,0.38-0.396,0.292-0.66l-8.932-26.4c-0.1-0.296-0.42-0.456-0.72-0.356s-0.456,0.42-0.356,0.72l8.896,26.284
				l-24.636-12.416c-0.004-0.036-0.012-0.072-0.02-0.108l-0.044,0.076l-1.48-0.744c0.028-0.028,0.076-0.02,0.096-0.056l9.408-16.428
				c0.156-0.272,0.06-0.616-0.212-0.772c-0.268-0.156-0.616-0.06-0.772,0.212l-9.408,16.428c-0.028,0.052-0.008,0.104-0.02,0.16
				L155.218,58.384z M178.098,73.092l2.368,1.196l-22.656,40.504c-0.064-0.004-0.124-0.008-0.188-0.012
				c-0.368-0.028-0.74-0.052-1.116-0.052c-0.568,0-1.136,0.008-1.704,0.024L178.098,73.092z M137.63,93.076
				c9.72,0,18.332,0.928,25.6,2.42l-1.676,2.996c-7.052-1.3-15.076-2.04-23.764-2.04c-6.2,0-12.056,0.412-17.54,1.096l-0.436-3.348
				C125.278,93.504,131.214,93.076,137.63,93.076z M121.418,113.932l0.912-0.448l-1.78-13.652
				c5.428-0.688,11.204-1.112,17.244-1.112c8.136,0,15.792,0.696,22.572,1.904l-9.136,16.336l1.844-0.096
				c1.472-0.08,2.968-0.148,4.408-0.048c0.296,0.02,0.588,0.044,0.888,0.048l0.616,0.016l8.248-14.748
				c9.568,2.456,16.472,6.06,19.008,10.22c-4.296,6.844-22.748,13.244-48.612,13.244c-25.876,0-44.952-6.376-49.716-13.064
				c2.672-4.364,10.488-8.176,21.112-10.684l1.708,13.12l1.064,0.156c1.06,0.156,2.084,0.232,3.064,0.232
				C117.306,115.352,119.502,114.876,121.418,113.932z M99.126,3.944l5.968-0.776l14.152,108.62c-1.72,0.64-3.72,0.868-5.984,0.656
				L99.126,3.944z M108.294,96.256l0.428,3.3c-10.424,2.448-18.244,6.188-21.856,10.656c-0.06-0.292-0.148-0.584-0.148-0.876
				C86.722,104.544,94.922,99.444,108.294,96.256z M60.774,170.684c-7.74-7.844-14.632-20.24-9.632-31.324
				c8-17.736,27.044-4.844,34.332,5.992c0.092,0.136,0.212,0.212,0.32,0.316c0.208,1.364,0.42,2.732,0.648,4.128
				c-3.272-4.336-7.096-7.692-9-9.032c-8.148-5.744-13.604-3.9-16.132-2.292c-4.52,2.876-6.144,8.56-5.408,12.684
				c0.792,4.428,3.284,9.08,7.844,14.636c6.604,8.048,23.368,18.892,30.892,22.76c1.124,4.32,2.316,8.612,3.572,12.832
				C85.274,191.936,71.978,182.036,60.774,170.684z M102.59,202.084c-2.488-8.184-4.688-16.54-6.6-24.756
				c7.188,6.02,22.396,10,40.904,10c17.864,0,33.072-3.716,40.892-9.304c-1.876,7.988-4.024,16.104-6.44,24.06
				c-5.012,16.488-10.468,29.824-15.948,39.452c-0.216,0.044-0.368,0.08-0.408,0.092c-0.716,0.196-4.928,1.68-5.292,1.832
				l-4.304,1.596l-2.948,0.2l-0.644,0.172l-0.752,0.536c-0.676,0.868-0.936,1.724-0.772,2.544c0.108,0.528,0.452,1.28,1.484,1.852
				c1.212,0.672,1.948,1.82,2.836,3.208l0.768,1.236c-2.888,2.56-5.712,4-8.396,4C126.234,258.804,113.382,237.6,102.59,202.084z
				 M154.998,273.716c-0.036,0.184-0.292,2.224-0.38,3.036c-0.036,0.308-0.116,2.712-0.108,3.748l0.116,1.52
				c-4.784,0.652-10.676,1.1-17.664,1.1c-19.716,0-31.04-3.488-31.844-5.24c0.224-0.54,2.74-2.416,11.076-3.86l0.296-0.076
				c1.464-0.492,3-0.816,4.488-1.128c4.316-0.904,8.78-1.84,10.496-6.924c0.028-0.076,0.18-1.608,0.408-4.176
				c1.672,0.688,3.364,1.088,5.08,1.088c1.688,0,3.352-0.448,5.004-1.128c0.268,2.584,0.452,4.132,0.48,4.216
				c1.716,5.084,6.176,6.02,10.496,6.924c0.696,0.148,1.408,0.3,2.144,0.476C155.058,273.436,155.018,273.612,154.998,273.716z
				 M156.094,269.452c-0.784-0.196-1.572-0.396-2.328-0.552c-4.176-0.876-6.588-1.508-7.492-4.168
				c-0.156-0.7-0.388-2.508-0.656-5.06c0.684-0.48,1.356-1.04,2.032-1.624c0.82,1.12,1.636,2.236,2.532,3.288
				c0.96,1.132,2.132,2.236,3.684,3.476c0.892,0.716,1.856,1.344,2.856,1.996l0.276,0.18L156.094,269.452z M201.522,263.732
				l-0.384,0.252l-1.388,0.796c-0.724,0.296-1.168,0.748-1.324,1.344c-0.224,0.864,0.28,1.5,0.516,1.804l1.352,3.784l0.524,2.7
				l0.46,4.716l-0.416,7.416c-0.016,1.012-0.04,2.352,0.584,3.648c-1.64-1.312-3.5-1.832-4.96-2.132l-1.184-0.288
				c-1.084-0.28-7.696-2.604-8.956-3.16l-1.708-0.936l-5.7-4.344l-1.532,1.752l-1.66,1.416l-2.224,1.38l-4.328,2.148
				c-0.308,0.14-1.808,0.676-2.4,0.86c-0.216,0.06-1.988,0.504-2.672,0.672l-2.592,0.644l-3.132,1.152l-0.544,0.348l-0.188,0.124
				l-0.596,0.4l0.46-1.308l0.132-1.324l-0.324-7.228c0-0.804,0.06-2.932,0.096-3.296c0.08-0.752,0.3-2.556,0.34-2.8
				c0.144-0.716,0.58-2.72,0.644-2.968l2.176-5.316l-2.332-1.556c-0.92-0.596-1.808-1.172-2.632-1.832
				c-1.408-1.124-2.456-2.108-3.3-3.1c-1-1.172-1.912-2.42-2.824-3.668l-2.576-3.86c-0.924-1.444-1.976-3.08-3.888-3.904
				c0,0,0,0,0-0.004l2.332-0.088l5.368-1.892c0.384-0.152,4.392-1.564,4.98-1.724c0.268-0.068,1.828-0.376,2.436-0.484
				c0.348-0.056,3.74-0.452,3.86-0.472l3.276,0.136c0.388,0.144,1.088,0.412,1.848,0.044c0.332-0.16,0.776-0.5,1.012-1.212
				c0.568-1.736,3.004-8.684,4.648-11.148c0.444-0.812,1.624-2.416,3.18-4.32l0.616-0.704c0.656-0.74,1.524-1.728,1.972-2.42
				l0.696-1.928c0.016,0.04,0.032,0.084,0.052,0.14c0.248,0.736,0.608,1.432,0.976,2.128l0.58,1.052
				c1.336,1.652,6.576,9.048,8.376,12.656c0.368,0.7,0.496,1.248,0.652,1.94c0.092,0.404,0.188,0.816,0.28,1.06l0.516,3.192
				l4.912-0.62h0.436l0.292-0.004l3.476,0.34c0.992,0.204,7.012,1.992,8.38,2.512c0.512,0.196,4.224,1.404,5.452,1.756l0.224,0.06
				l1-0.024c0.168,0,0.304,0.008,0.412,0.012l-1.248,0.856l-7.26,10.12L201.522,263.732z M203.426,267.62l5.204,2.508l0.74,6.568
				C206.29,273.272,204.402,269.784,203.426,267.62z M210.654,278.032l-0.824-7.324l5.588,2.692l1.392,9.28
				C214.422,281.332,212.378,279.736,210.654,278.032z M218.318,283.54c-0.092-0.044-0.164-0.1-0.256-0.144L216.654,274l5.988,2.888
				l0.872,8.532C221.75,284.928,219.994,284.348,218.318,283.54z M224.69,285.728l-0.844-8.268l5.604,2.7l1.06,6.552
				C228.598,286.524,226.65,286.204,224.69,285.728z M231.674,286.812l-0.98-6.048l4.56,2.196l0.776,4.02
				C234.654,286.988,233.19,286.924,231.674,286.812z M237.182,286.968l-0.656-3.388l6.24,3.008
				C241.302,286.756,239.406,286.912,237.182,286.968z M204.482,266.872c5.076-0.596,15.724-1.164,24.448,3.044
				c8.744,4.216,13.188,12.144,14.892,15.92L204.482,266.872z"/>
			<path d="M176.43,258.52c-0.932-1.876-3.752-3.292-6.248-3.292c-0.868,0-1.7,0.172-2.396,0.556c1.036,2.04,3.816,3.268,6.22,3.268
				C174.902,259.052,175.746,258.88,176.43,258.52z M169.698,256.388c0.156-0.016,0.32-0.024,0.484-0.024
				c1.532,0,3.208,0.636,4.292,1.536c-0.152,0.012-0.308,0.02-0.468,0.02C172.39,257.92,170.758,257.308,169.698,256.388z"/>
			<path d="M182.142,258.308c0.708,0.408,1.564,0.592,2.464,0.592c2.448,0,5.216-1.352,6.204-3.212
				c-0.692-0.392-1.548-0.568-2.456-0.568C185.906,255.116,183.086,256.412,182.142,258.308z M184.606,257.764
				c-0.188,0-0.372-0.008-0.548-0.028c1.06-0.876,2.724-1.484,4.296-1.484c0.168,0,0.332,0.008,0.488,0.02
				C187.762,257.152,186.126,257.764,184.606,257.764z"/>
			<path d="M181.002,261.508c-0.736,2.816,2.148,7.328,4.84,7.664C186.69,266.56,184.106,262.432,181.002,261.508z M184.826,267.548
				c-0.556-0.388-1.12-0.972-1.6-1.68c-0.564-0.832-0.948-1.728-1.116-2.54c0.832,0.604,1.592,1.476,2.116,2.468
				C184.542,266.396,184.746,267,184.826,267.548z"/>
			<path d="M171.946,268.628c0.068,0.008,0.136,0.008,0.208,0.008c2.52,0,5.752-4.032,5.488-7.024
				C174.75,261.86,171.598,265.776,171.946,268.628z M174.678,265.992c-0.472,0.516-0.976,0.92-1.468,1.184
				c0.216-0.76,0.652-1.576,1.26-2.324c0.556-0.688,1.196-1.244,1.836-1.612C176.014,264.168,175.438,265.16,174.678,265.992z"/>
			<path d="M179.222,256.24c2.192-1.92,2.156-7.128,0.016-9.096C177.162,249.396,177.178,253.964,179.222,256.24z M179.718,251.808
				c-0.012,0.884-0.168,1.708-0.444,2.376c-0.612-1.512-0.616-3.468-0.004-4.972C179.566,249.948,179.73,250.86,179.718,251.808z"/>
			<path d="M208.154,251.308l0.612-0.708l0.012-0.176c0.036-0.48,0.028-1.084-0.36-1.512c-0.412-0.452-1.072-0.524-1.748-0.536
				l-0.568,0.012c-0.976-0.3-3.632-1.192-3.952-1.32c-1.068-0.42-5.752-1.872-6.744-2.08l-2.816-0.288l-0.668-0.004l-1.94,0.14
				l-0.456,0.084l-0.148-0.912c-0.092-0.308-0.156-0.592-0.22-0.876c-0.132-0.584-0.264-1.192-0.64-1.928
				c-1.516-3.14-5.696-9.168-6.532-10.216c-0.104-0.228-0.22-0.448-0.332-0.672c-0.252-0.488-0.488-0.948-0.644-1.428
				c-0.38-1.176-1.128-1.616-2.24-1.336l-0.152,0.04l-0.508,0.512l-0.636,1.808l-0.096,0.184c-0.192,0.292-0.84,1.048-1.272,1.548
				c-0.22,0.256-0.404,0.472-0.544,0.648c-0.732,0.932-2.04,2.644-2.544,3.596c-1.416,2.188-3.344,8.056-3.672,9.056
				c-0.044-0.016-0.096-0.036-0.156-0.06l-3.02-0.18c-0.22,0.02-2.916,0.344-3.212,0.396c-0.44,0.08-1.856,0.364-2.04,0.424
				c-0.54,0.156-3.772,1.332-3.996,1.428l-1.828,0.768l-1.94,0.64l-1.968,0.052l-0.372,0.132l-0.304,0.22
				c-0.42,0.56-0.584,1.084-0.484,1.564c0.088,0.436,0.384,0.8,0.872,1.084c1.048,0.6,1.672,1.616,2.368,2.732l1.08,1.812
				c0.316,0.432,0.624,0.872,0.936,1.308c0.7,0.996,1.424,2.02,2.216,2.98c0.72,0.876,1.592,1.728,2.752,2.684
				c0.676,0.56,1.388,1.04,2.144,1.548c0.2,0.136,0.404,0.272,0.608,0.412l-0.544,1.204l-0.62,1.96
				c-0.06,0.24-0.412,1.896-0.524,2.488c-0.036,0.184-0.228,1.82-0.284,2.364c-0.036,0.288-0.084,2.172-0.084,2.844l0.216,2.968
				l0.032,2.684l-0.036,0.6l-0.516,1.52l0.016,0.868l0.968,1.032h0.96l1.604-1.12l2.016-0.752c0.492-0.124,1.82-0.468,1.984-0.508
				c0.54-0.136,1.944-0.5,2.116-0.556c0.472-0.152,1.924-0.684,2.08-0.776l1.328-0.584l3.372-1.964l1.668-1.304l0.604-0.664
				l3.196,2.512l1.484,0.856c1.156,0.536,6.276,2.4,7.216,2.652l0.94,0.236c1.624,0.344,2.72,0.884,3.552,1.748l0.144,0.152
				l1.152,0.116l1.16-1.396l-0.1-0.78l-0.084-0.232c-0.436-0.68-0.46-1.468-0.444-2.404l0.308-5.22l0.012-0.72l-0.12-2.18
				l-0.688-4.112l-1.048-3c-0.02-0.232-0.136-0.416-0.24-0.564l1.184-0.692l1.612-1.188l1.328-1.224l2.7-2.976l3.444-5.416
				l1.052-1.352L208.154,251.308z M205.838,251.752l-3.848,5.968l-1.152,1.444l-2.812,2.8l-1.068,0.824l-1.692,1.064
				c-0.144,0.06-0.584,0.248-0.704,0.684c-0.108,0.412,0.136,0.728,0.28,0.916c0.032,0.044,0.068,0.084,0.1,0.184l1.056,3.072
				l0.608,3.332l0.16,2.68l-0.32,5.876c-0.012,0.828-0.032,1.944,0.552,2.94l0.02,0.168l-0.46,0.552l-0.144-0.012
				c-1.252-1.216-2.776-1.664-3.96-1.916l-0.916-0.232c-0.88-0.236-5.932-2.076-6.976-2.556l-1.368-0.788l-3.984-3.144l-0.672,0.784
				l-1.56,1.44l-3.396,2.08l-1.688,0.756c-0.156,0.076-1.4,0.544-1.92,0.712c-0.16,0.048-1.528,0.404-2.064,0.54
				c-0.172,0.048-1.492,0.384-2.028,0.524l-2.2,0.832l-1.444,0.992h-0.112l-0.336-0.36l-0.004-0.236l0.476-1.408l0.072-0.872
				l-0.008-2.052l-0.24-3.668c0-0.708,0.056-2.464,0.08-2.672c0.064-0.612,0.24-2.1,0.268-2.272
				c0.112-0.576,0.448-2.188,0.504-2.404l0.408-1.428l1.088-2.424l-0.384-0.268c-0.34-0.24-0.68-0.468-1.012-0.688
				c-0.728-0.492-1.416-0.956-2.052-1.484c-1.1-0.908-1.924-1.712-2.596-2.528c-0.76-0.928-1.476-1.936-2.164-2.916
				c-0.312-0.444-0.624-0.888-0.916-1.28l-1.088-1.828c-0.708-1.148-1.44-2.332-2.74-3.076c-0.132-0.076-0.296-0.192-0.324-0.324
				s0.056-0.34,0.272-0.564l1.9-0.064l0.576-0.152l3.476-1.328c0.22-0.092,3.38-1.248,3.876-1.388
				c0.14-0.04,1.372-0.296,1.916-0.396c0.252-0.044,2.928-0.364,3.048-0.38l1.944,0.072l0.72,0.068
				c0.248,0.1,0.632,0.248,1.012,0.064c0.244-0.116,0.416-0.332,0.516-0.644c0.02-0.064,2.14-6.676,3.6-8.932
				c0.356-0.668,1.248-1.932,2.492-3.512c0.092-0.112,0.268-0.32,0.48-0.568c0.5-0.584,1.124-1.312,1.38-1.7l0.664-1.876
				l0.188-0.192c0.348-0.076,0.528,0.016,0.728,0.624c0.18,0.568,0.452,1.092,0.712,1.6c0.108,0.212,0.22,0.424,0.384,0.748
				c1.032,1.32,5.08,7.236,6.476,10.124c0.312,0.62,0.42,1.108,0.548,1.672c0.068,0.308,0.14,0.62,0.224,0.88l0.304,1.984
				l1.544-0.284l1.8-0.128l3.312,0.28c0.876,0.184,5.492,1.616,6.496,2.016c0.392,0.156,3.252,1.116,4.132,1.376l0.084,0.024
				l0.724-0.016c0.664,0.012,0.852,0.112,0.904,0.168c0.036,0.04,0.084,0.156,0.076,0.488l-0.204,0.252l-1.068,0.748
				L205.838,251.752z"/>
		</g>
	</g>
</g>
<g>
</g>
<g>
</g>
<g>
</g>
<g>
</g>
<g>
</g>
<g>
</g>
<g>
</g>
<g>
</g>
<g>
</g>
<g>
</g>
<g>
</g>
<g>
</g>
<g>
</g>
<g>
</g>
<g>
</g>
</svg>
