<svg xmlns="http://www.w3.org/2000/svg" width="398.22" height="396.11"><path d="M395.92 8.89c-1.71-2-3.59-3.76-5.48-5.55-4.69-4.44-8.3-4.49-12.9.08-19 18.9-38 37.79-56.78 56.85a33.73 33.73 0 00-9.45 17.19c1.66 3.38 2.25 6.81-.61 10.52-4.35 1.68-9.67 2.75-13.78 5.57s-7.1 7.44-10.54 11.22l1.62 4.43c-1.59 2.59-2 3.3-4.55 4.52-3.84-.56-7.61 1-10.67 3.32a38.63 38.63 0 00-8.61 9.11l-.18.19c-.08.09-2.71 3.22-1.71 9.69a12.11 12.11 0 01-4.79 2.94 11.65 11.65 0 00-5.32 1 8.52 8.52 0 00-2.55 1.4 22.41 22.41 0 00-2.07 1.56 52.69 52.69 0 00-4.88 5c-.69.78-1.35 1.58-2 2.4-.84.85-3 7.8-3.23 11l-1.24.6c-2.38.34-7 1.2-9.74 3.24-4 3-12.08 11.8-12.25 12.11-.16.15.86 4.06.44 5.9a4 4 0 01-.61 1.38 11.38 11.38 0 01-2.82 1.88c-8.05-.07-18.45 11.3-20.44 13.37-1.16.89-2.25 1.81-2.45 3.44a21.9 21.9 0 00.17 4.12c0 .32 0 .65.07 1-.13.78-.27 1.56-.41 2.34-4.67 1.75-9.6 2.82-13.51 5.42a20 20 0 00-2.7 2.19h-.09a17.16 17.16 0 00-9.18 16.92 27.77 27.77 0 00-10.91 3.89 42.17 42.17 0 00-6.14 4.57 35.34 35.34 0 00-5.23 5.29c-1.35 1.82-2.08 4.37-.72 6.39a.57.57 0 00.11.11c0 .56-.07 1.12-.11 1.68a56.66 56.66 0 00-14.65 7.89 58 58 0 00-6.32 5.51c-1.82 1.84-3.47 3.77-3.51 6.48 0 1.2.26 2.59.35 3.93-1.18 1.61-3.62 2.34-5.28 3.15a72.88 72.88 0 00-6.95 3.92c-4 2.56-12.37 10.07-12.38 10.18-1.85 3.2-2.3 7-2.59 10.65a47.87 47.87 0 00-22.66 14 23 23 0 00-4.26-2.91c-1.25-.45-2.36-1.24-3.57-1.79-14.89-6.76-33.1-4.82-46.09 8.45-17.04 17.56-15.77 45.82 4.91 61.59 14.55 11.1 36.41 10.32 50.09-1.24 16.67-14.08 17.32-35.26 10-51.09a32.34 32.34 0 00-6.33-8.64c2.91-1.28 7.92-3.53 9.71-4.14a31.65 31.65 0 009.23-5.27c3.26-2.6 6-5.84 9-8.88 1.12-3.21 2.29-6.56 3.42-9.84 10-1.08 25.38-8.32 24.41-24.14.2 0 .38-.1.57-.15a27.19 27.19 0 0020.78-14.64 28.49 28.49 0 001.64-4.06 28.32 28.32 0 001.27-3.59c1.51-.61 3.05-1.16 4.56-1.77a30.37 30.37 0 007.29-4.14 36.39 36.39 0 009.34-10.91l.37-.39.3-.86c.12-.23.25-.46.37-.7a51.59 51.59 0 003.32-8.41c9.74-1.28 14.35-9.28 20.4-14.14 1.35-3.87 2.44-7 3.55-10.21 10.05-1.24 14.87-9.27 21.05-14.39 1.3-3.8 2.39-7 3.53-10.29 10.08-1 14.75-9.2 21-14.22l3.61-10.37c9.85-.82 14.44-8.92 20.89-14.06l3.67-10.51c9.81-.84 14.45-8.89 20.77-13.94 1.59-4.21 3.05-8.07 4.41-11.65 6-1.49 10.61-3.87 14.43-8.1a27.54 27.54 0 019.67-6.84 53.57 53.57 0 0017.86-11.75Q366.72 49 392.59 23.16a32.82 32.82 0 004-4.48c2.41-3.54 2.18-6.54-.67-9.79zM67.85 382.16c-15.33 15.49-38.64 13.32-52.33-.56a36.75 36.75 0 01-2.5-49A35 35 0 1077.17 352a35.51 35.51 0 00-.81-7.49c4.13 11.81 2.78 26.25-8.51 37.65zm21.45-67.44a.53.53 0 00-.1.25c-4.52 5.44-10 7.27-16.91 6.37a43.56 43.56 0 018.09-5.86 18 18 0 014.67-2 9.19 9.19 0 012.51-.25c.37 0 2 .28 2 .84a4.87 4.87 0 01-.26.65zm7.35-7.33c-3.89-1-3.89-1-4.17-6.85l7.9-1.91zm35-36.57l-6.56-2.25 3.18-3.83.33-.21q.9-.52 1.83-1l9.12.66a15 15 0 01-7.94 6.63zm15-23.44a40.45 40.45 0 017.13-5.86 20.71 20.71 0 015-2.27l4.38.38a1.56 1.56 0 01.39.58c-4.55 6-8.97 7.97-16.98 7.17zm25.57-24.75c1.19-1.92 2.62-6.51 10.55-8l5.49.44c-4.05 6.53-8.21 8.53-16.12 7.56zm23.16-24.84c.68-1.19 5.77-8 12.45-7.78l5.52.62c-4.63 6.47-10.53 8.67-18.05 7.16zm29-24.18c-.28-2.79 4.06-5.4 7.89-7.7a7.15 7.15 0 011.79 0l3 1 .16.08a.39.39 0 00.14.05c-3.64 3.81-7.13 7.14-13.09 6.57zm21.54-26.22c.22-.25.46-.49.69-.73l4-3.46a17.29 17.29 0 011.77-1.1c2.87-1.55 6-1.08 8.92-.1-3.88 6.68-8.18 8.29-15.49 5.39zm20.42-12.25a67.57 67.57 0 01-1.48-6.89l7.1-1.35c-1.54 3.74-1.74 7.24-5.73 8.24zm13.58-11.51l-10.34.83c1.1-1.31 2.15-2.53 3.2-3.65a17 17 0 015.92-3.79 11 11 0 014.34-.56l3.24 1a7 7 0 01.67.44zm13.31-22.8c4.15-7.65 10.68-9.44 19.19-9.17-5.29 6.8-11.99 8.18-19.3 9.17zm35.47-20.16a.89.89 0 00-.19.2c-2.21 1.5-5 2.19-7.78 3.13l-5.24-6c1.42-2.91 2.72-5.55 5.29-7.48a6.5 6.5 0 015.05 1l2 2a8.74 8.74 0 011.2 2.43c.38 1.19 1.05 3.76-.33 4.72zm61.66-62.1c-.94 3.67-47 48.25-55.1 56.19a9.14 9.14 0 01-1.68 1.2 87.73 87.73 0 00-7.52-9.66c9.14-9.92 50.94-55.63 53.23-56.4s12.42 3.37 11.07 8.67z" fill="#fff" data-name="Слой 2"/></svg>