<svg width="56" height="54" viewBox="0 0 56 54" fill="none" xmlns="http://www.w3.org/2000/svg">
<path d="M55.818 20.578C55.7 20.216 55.387 19.952 55.01 19.897L36.92 17.268L28.83 0.875993C28.662 0.533993 28.314 0.317993 27.934 0.317993C27.554 0.317993 27.205 0.533993 27.038 0.875993L18.947 17.269L0.857003 19.898C0.480003 19.953 0.168003 20.216 0.0490027 20.579C-0.0679973 20.94 0.0290027 21.338 0.302003 21.603L13.393 34.363L10.302 52.381C10.238 52.756 10.392 53.135 10.699 53.359C11.008 53.585 11.417 53.614 11.752 53.435L27.934 44.929L44.114 53.435C44.26 53.512 44.421 53.55 44.58 53.55C44.787 53.55 44.993 53.486 45.168 53.359C45.476 53.135 45.63 52.756 45.565 52.381L42.475 34.364L55.566 21.603C55.838 21.336 55.936 20.939 55.818 20.578Z" fill="#1A1919"/>
</svg>
