<svg width="567" height="661" viewBox="0 0 567 661" fill="none" xmlns="http://www.w3.org/2000/svg">
<g clip-path="url(#clip0)">
<path d="M405.672 505.068C408.519 428.877 343.758 365.186 269.565 368.78C263.567 365.377 257.696 363.487 251.988 362.775C254.964 361.222 257.184 357.863 256.258 354.016C237.907 277.987 209.758 201.892 182.062 127.203C185.378 125.34 187.609 121.011 186.152 117.41C173.099 85.1782 168.103 49.2591 158.075 15.956C156.624 11.1383 151.455 9.80093 147.292 11.8382C137.829 16.471 129.934 23.3351 121.875 30.0258C118.458 32.8623 121.296 37.4282 124.883 38.0275C125.652 48.2786 131.455 60.2339 133.944 68.7945C139.339 87.3476 145.252 105.76 150.951 124.224C152.512 129.282 157.306 131.133 162.141 130.234C163.776 129.93 165.375 129.746 166.958 129.609C187.328 208.182 205.66 290.315 242.79 360.044C243.378 361.154 244.134 361.918 244.95 362.505C205.309 364.432 175.051 423.828 169.5 457.165C158.817 521.326 187.118 592.407 253.094 611.289C328.035 632.743 402.796 581.977 405.672 505.068ZM146.241 27.6559C147.067 30.5436 147.861 33.4673 148.665 36.3809C148.406 36.5408 148.117 36.7022 147.891 36.8562C146.505 37.7998 145.889 39.0779 145.771 40.3774C144.391 36.6176 142.799 33.093 140.772 30.2753C142.568 29.3494 144.386 28.4623 146.241 27.6559ZM249.884 594.135C194.317 578.479 177.9 510.601 184.034 460.475C186.758 438.215 195.056 416.439 209.443 399.156C223.598 382.159 240.291 380.735 258.803 379.59C259.741 380.349 260.957 380.835 262.571 380.688C332.804 374.193 383.71 431.718 388.997 498.431C395.056 574.828 316.136 612.798 249.884 594.135Z" fill="white"/>
<path d="M359.854 504.381C353.175 457.916 315.902 407.003 271.699 390.086C266.745 388.19 262.42 392.171 262.162 396.124C166.526 415.152 187.455 571.452 284.396 580.284C332.911 584.697 366.736 552.274 359.854 504.381ZM300.232 565.323C203.429 577.822 185.308 432.92 269.334 403.346C276.397 407.101 283.926 412.654 291.42 419.398C287.706 424.683 284.174 430.151 280.677 435.658C278.337 430.794 276.171 425.806 274.385 420.571C273.566 418.167 269.852 419.271 270.608 421.71C272.563 428.039 275.029 434.187 277.809 440.169C273.177 447.544 268.578 454.967 263.765 462.2C259.414 456.265 255.207 450.207 251.287 443.89C251.495 442.794 250.781 441.69 249.754 441.233C246.824 436.391 243.969 431.488 241.343 426.376C240.532 424.786 238.28 426.24 239.015 427.801C241.341 432.763 243.9 437.602 246.504 442.412C236.938 452.387 229.128 464.42 228.074 478.457C227.237 477.811 226.403 477.138 225.568 476.499C224.654 475.806 223.429 477 224.309 477.818C229.52 482.657 234.51 487.69 239.39 492.819C238.657 493.539 237.987 494.323 237.237 495.021C236.153 496.031 237.626 497.795 238.843 497.013C239.758 496.428 240.573 495.685 241.46 495.059C245.52 499.379 249.52 503.746 253.471 508.154C250.256 512.47 247.051 516.801 243.793 521.088C240.873 524.936 246.264 530.199 249.286 526.33C252.467 522.256 255.636 518.173 258.812 514.094C261.755 517.388 264.696 520.686 267.663 523.964C266.866 524.629 266.077 525.351 265.271 525.988C261.892 528.657 265.205 534.422 268.837 531.818C270.039 530.955 271.218 529.982 272.408 529.059C275.985 532.941 279.544 536.83 283.251 540.595C285.404 542.78 289.301 539.72 287.473 537.188C284.407 532.954 281.095 528.851 277.682 524.811C283.289 520.036 288.582 514.582 293.669 508.909C298.052 513.889 302.54 518.775 307.117 523.572C303.033 528.087 298.815 532.504 294.413 536.854C291.596 539.637 295.938 543.634 298.808 541.046C303.277 537.013 307.846 532.97 312.191 528.721C319.7 536.388 327.368 543.876 335.201 551.102C327.664 558.179 316.347 563.246 300.232 565.323ZM281.53 484.495C285.911 478.724 290.26 472.928 294.58 467.112C298.083 471.409 301.848 475.488 305.963 479.225C301.966 485.345 297.696 491.501 292.955 497.492C289.073 493.212 285.273 488.876 281.53 484.495ZM288.503 502.791C283.544 508.667 278.398 514.349 272.968 519.352C269.732 515.75 266.362 512.252 262.921 508.816C267.882 502.421 272.77 495.967 277.679 489.533C281.191 494.022 284.801 498.437 288.503 502.791ZM275.991 477.927C273.251 474.592 270.618 471.167 267.989 467.73C272.761 461.267 277.222 454.44 281.555 447.6C283.94 452.005 286.554 456.255 289.42 460.332C284.886 466.155 280.42 472.027 275.991 477.927ZM264.757 471.941C267.261 475.557 269.796 479.148 272.431 482.677C267.332 489.51 262.251 496.355 257.175 503.204C253.239 499.478 249.205 495.863 245.11 492.339C252.37 486.614 258.787 479.572 264.757 471.941ZM242.26 489.871C238.39 486.609 234.472 483.461 230.541 480.38C230.741 480.144 230.943 479.898 230.976 479.526C232.148 466.546 239.839 455.722 248.889 446.817C252.649 453.484 256.709 459.976 260.941 466.36C255.228 474.662 249.16 482.648 242.26 489.871ZM317.258 523.483C322.485 517.832 327.162 511.737 330.582 504.764C332.587 500.677 326.857 497.72 324.429 501.46C320.623 507.325 316.427 512.747 312.012 517.978C307.435 513.175 302.894 508.36 298.406 503.511C303.497 497.365 308.158 490.93 312.285 484.428C316.782 487.913 321.484 491.174 326.618 493.914C329.578 495.491 331.868 491.101 329.06 489.367C324.179 486.347 319.649 482.99 315.301 479.469C316.223 477.883 317.176 476.299 318.02 474.716C320.38 470.295 313.738 466.778 311.199 471.053C310.576 472.098 309.81 473.175 309.16 474.227C305.154 470.549 301.431 466.621 297.961 462.492C301.798 457.279 305.627 452.053 309.38 446.774C311.717 443.487 306.208 439.561 303.654 442.626C299.986 447.027 296.436 451.519 292.883 456.017C289.835 451.865 286.998 447.549 284.456 443.022C288.491 436.578 292.456 430.174 296.44 424.114C331.193 458.041 362.605 516.321 339.199 546.681C331.944 538.837 324.589 531.153 317.258 523.483Z" fill="white"/>
</g>
<defs>
<clipPath id="clip0">
<rect width="487" height="487" fill="white" transform="translate(137.192 0.769226) rotate(28.2388)"/>
</clipPath>
</defs>
</svg>
