<svg width="720" height="134" viewBox="0 0 720 134" fill="none" xmlns="http://www.w3.org/2000/svg">
<path d="M255 2.09524C255 2.69524 254.2 2.89524 253.2 2.59524C251.8 2.09524 250.5 3.19524 248.1 6.49524C227.6 34.9952 186.2 53.3952 152.2 49.1952C133.6 46.7952 116.7 40.3952 101.3 29.7952C93 24.0952 80.3 11.8952 76.2 5.79524C74.9 3.69524 73.4 1.99524 73.1 1.99524C72.7 1.99524 71.7 3.29524 70.7 4.89524C67.8 9.79524 55.3 22.5952 48.2 27.7952C4.60001 60.0952 -55.1 56.5952 -94 19.3952C-98.4 15.0952 -103.7 9.49524 -105.6 6.79524C-107.6 4.19524 -109.5 1.99524 -109.8 1.99524C-110.2 1.99524 -112.3 4.59524 -114.5 7.59524C-119.5 14.5952 -131.2 25.5952 -139.3 30.9952C-170.8 51.7952 -210.4 55.5952 -245.2 40.9952C-256.6 36.2952 -270 26.9952 -280.2 16.6952C-287.1 9.79524 -289.2 8.09524 -288.8 9.99524C-288.4 11.3952 -285.1 34.6952 -281.4 61.8952L-274.5 111.195L-268.4 115.595C-251.2 127.795 -229 133.995 -202.2 133.995C-175.1 133.995 -153.3 127.595 -133.2 113.695C-126 108.695 -115.4 98.1952 -112.2 92.7952C-111.3 91.1952 -110.3 89.9952 -109.9 89.9952C-109.6 89.9952 -108 91.7952 -106.5 93.9952C-103 98.9952 -90.9 110.595 -84.6 114.895C-76.6 120.395 -60 127.695 -49 130.495C-35 134.095 -13.2 134.995 1.60001 132.695C31 127.995 54.7 114.595 70.4 93.6952L73.3 89.9952L75.4 92.8952C76.5 94.4952 79.6 98.2952 82.3 101.295C84.9 104.295 87 107.695 87 108.895C87 111.595 96.5 118.695 106.4 123.395C122 130.795 138.4 133.995 161.7 133.995C184.4 133.995 200.3 131.095 215.7 123.995C228.8 117.895 241 108.695 241 104.895C241 103.895 242.7 101.195 244.8 98.7952C246.8 96.3952 249.2 93.3952 250 92.0952L251.6 89.6952L256.9 96.1952C272.9 115.995 297.3 128.995 325.9 133.095C337.6 134.695 360.1 133.795 371.8 131.095C395.8 125.595 416.6 113.295 429.4 96.8952L434.7 90.1952L440.6 97.3952C456.7 116.695 479.2 128.795 506.7 132.895C515.9 134.295 537 134.295 546.3 132.895C575.1 128.695 599.6 115.295 614.7 95.6952L619.3 89.6952L621.4 92.5952C629.6 104.195 643.2 115.095 658.5 122.495C674.1 130.095 686.5 133.095 705.5 133.695C744 135.095 775.5 122.395 796.4 97.2952L802.3 90.1952L806.3 95.2952C824.9 118.795 853.8 132.395 888 133.695C916.7 134.795 939.8 129.095 958.6 116.195C968.2 109.695 969.7 107.595 970.9 98.9952C973.5 79.9952 984.1 7.09524 984.7 3.99524C985.3 0.595239 985.2 0.59524 980.7 6.49524C948.9 48.5952 891.3 61.8952 844.2 38.0952C829.7 30.6952 814.1 17.8952 805.9 6.49524C804.1 3.99524 802.4 1.99524 802 1.99524C801.7 1.99524 800.7 3.29524 799.7 4.89524C796.8 9.79524 784.3 22.5952 777.2 27.7952C739.3 55.9952 689.1 57.2952 649.5 31.0952C641.4 25.7952 628.5 13.7952 623.4 6.79524C621 3.59524 619.2 2.09524 618 2.29524C617 2.49524 614.1 5.39524 611.5 8.79524C603.5 19.4952 588.6 31.5952 575.2 38.3952C562.3 44.8952 541.1 49.9952 526.5 49.9952C517.9 49.9952 503.6 47.6952 494.7 44.9952C476.3 39.2952 462.5 30.4952 446.1 13.8952L434.4 2.09524L429 9.19524C420.4 20.4952 407.7 30.6952 393.3 37.8952C354.4 57.4952 308.2 52.6952 274.2 25.3952C263.1 16.4952 254.8 6.69524 255.6 3.39524C255.9 2.09524 255.9 0.995239 255.6 0.995239C255.3 0.995239 255 1.49524 255 2.09524Z" fill="black"/>
</svg>
