<svg width="1274" height="134" viewBox="0 0 1274 134" fill="none" xmlns="http://www.w3.org/2000/svg">
<path d="M544 2.09524C544 2.69524 543.2 2.89524 542.2 2.59524C540.8 2.09524 539.5 3.19524 537.1 6.49524C516.6 34.9952 475.2 53.3952 441.2 49.1952C422.6 46.7952 405.7 40.3952 390.3 29.7952C382 24.0952 369.3 11.8952 365.2 5.79524C363.9 3.69524 362.4 1.99524 362.1 1.99524C361.7 1.99524 360.7 3.29524 359.7 4.89524C356.8 9.79524 344.3 22.5952 337.2 27.7952C293.6 60.0952 233.9 56.5952 195 19.3952C190.6 15.0952 185.3 9.49524 183.4 6.79524C181.4 4.19524 179.5 1.99524 179.2 1.99524C178.8 1.99524 176.7 4.59524 174.5 7.59524C169.5 14.5952 157.8 25.5952 149.7 30.9952C118.2 51.7952 78.6 55.5952 43.8 40.9952C32.4 36.2952 19 26.9952 8.79996 16.6952C1.89996 9.79524 -0.200041 8.09524 0.199959 9.99524C0.599959 11.3952 3.89996 34.6952 7.59996 61.8952L14.5 111.195L20.6 115.595C37.8 127.795 60 133.995 86.8 133.995C113.9 133.995 135.7 127.595 155.8 113.695C163 108.695 173.6 98.1952 176.8 92.7952C177.7 91.1952 178.7 89.9952 179.1 89.9952C179.4 89.9952 181 91.7952 182.5 93.9952C186 98.9952 198.1 110.595 204.4 114.895C212.4 120.395 229 127.695 240 130.495C254 134.095 275.8 134.995 290.6 132.695C320 127.995 343.7 114.595 359.4 93.6952L362.3 89.9952L364.4 92.8952C365.5 94.4952 368.6 98.2952 371.3 101.295C373.9 104.295 376 107.695 376 108.895C376 111.595 385.5 118.695 395.4 123.395C411 130.795 427.4 133.995 450.7 133.995C473.4 133.995 489.3 131.095 504.7 123.995C517.8 117.895 530 108.695 530 104.895C530 103.895 531.7 101.195 533.8 98.7952C535.8 96.3952 538.2 93.3952 539 92.0952L540.6 89.6952L545.9 96.1952C561.9 115.995 586.3 128.995 614.9 133.095C626.6 134.695 649.1 133.795 660.8 131.095C684.8 125.595 705.6 113.295 718.4 96.8952L723.7 90.1952L729.6 97.3952C745.7 116.695 768.2 128.795 795.7 132.895C804.9 134.295 826 134.295 835.3 132.895C864.1 128.695 888.6 115.295 903.7 95.6952L908.3 89.6952L910.4 92.5952C918.6 104.195 932.2 115.095 947.5 122.495C963.1 130.095 975.5 133.095 994.5 133.695C1033 135.095 1064.5 122.395 1085.4 97.2952L1091.3 90.1952L1095.3 95.2952C1113.9 118.795 1142.8 132.395 1177 133.695C1205.7 134.795 1228.8 129.095 1247.6 116.195C1257.2 109.695 1258.7 107.595 1259.9 98.9952C1262.5 79.9952 1273.1 7.09524 1273.7 3.99524C1274.3 0.595237 1274.2 0.595237 1269.7 6.49524C1237.9 48.5952 1180.3 61.8952 1133.2 38.0952C1118.7 30.6952 1103.1 17.8952 1094.9 6.49524C1093.1 3.99524 1091.4 1.99524 1091 1.99524C1090.7 1.99524 1089.7 3.29524 1088.7 4.89524C1085.8 9.79524 1073.3 22.5952 1066.2 27.7952C1028.3 55.9952 978.1 57.2952 938.5 31.0952C930.4 25.7952 917.5 13.7952 912.4 6.79524C910 3.59524 908.2 2.09524 907 2.29524C906 2.49524 903.1 5.39524 900.5 8.79524C892.5 19.4952 877.6 31.5952 864.2 38.3952C851.3 44.8952 830.1 49.9952 815.5 49.9952C806.9 49.9952 792.6 47.6952 783.7 44.9952C765.3 39.2952 751.5 30.4952 735.1 13.8952L723.4 2.09524L718 9.19524C709.4 20.4952 696.7 30.6952 682.3 37.8952C643.4 57.4952 597.2 52.6952 563.2 25.3952C552.1 16.4952 543.8 6.69524 544.6 3.39524C544.9 2.09524 544.9 0.995237 544.6 0.995237C544.3 0.995237 544 1.49524 544 2.09524Z" fill="white"/>
</svg>
